<?xml version="1.0" encoding="UTF-8"?>
<svg version="1.1" xmlns="http://www.w3.org/2000/svg" width="200" height="200">
<path d="M0 0 C5.99479025 3.58335206 9.7262619 8.29191187 12.0546875 14.8515625 C12.85204339 18.66265339 12.24289766 22.26936476 11.515625 26.0546875 C12.26199219 26.19003906 13.00835937 26.32539062 13.77734375 26.46484375 C27.80724439 29.13644399 41.64925297 32.6512885 55.515625 36.0546875 C55.92748047 35.14589844 55.92748047 35.14589844 56.34765625 34.21875 C58.71166701 29.83860966 62.31881775 27.56102903 66.765625 25.6796875 C73.52945243 24.55238293 80.0686484 24.92139082 85.91796875 28.765625 C90.63949003 32.57516539 94.12789447 36.59969367 95.34765625 42.72265625 C95.69502536 47.54543198 95.06023606 52.26211019 94.515625 57.0546875 C100.125625 60.6846875 105.735625 64.3146875 111.515625 68.0546875 C112.8975 67.0646875 114.279375 66.0746875 115.703125 65.0546875 C121.93596732 61.32382302 127.41120267 61.01634885 134.515625 62.0546875 C137.66225195 62.89865036 139.92838036 64.08883349 142.515625 66.0546875 C143.18851563 66.54453125 143.86140625 67.034375 144.5546875 67.5390625 C148.62455133 71.20356141 149.92599128 74.42611483 150.24560547 79.92749023 C150.31218973 87.00247419 149.58625213 92.79773811 144.515625 98.0546875 C144.03480469 98.55355469 143.55398437 99.05242187 143.05859375 99.56640625 C138.19165964 104.04809492 133.14865522 105.49648091 126.59765625 105.30859375 C120.29503703 104.53998165 116.4737888 102.02121854 111.515625 98.0546875 C105.905625 101.6846875 100.295625 105.3146875 94.515625 109.0546875 C94.7425 111.0346875 94.969375 113.0146875 95.203125 115.0546875 C95.80137904 123.29630659 94.4315047 127.89610473 89.390625 134.3671875 C85.61365416 138.38962186 81.98185228 140.29796222 76.515625 141.0546875 C68.95025677 141.20325213 63.36285796 139.59243862 57.640625 134.4921875 C55.515625 132.0546875 55.515625 132.0546875 55.515625 130.0546875 C54.43144287 130.3220874 53.34726074 130.5894873 52.23022461 130.86499023 C48.1849998 131.8617393 44.13868717 132.85400933 40.09204102 133.8449707 C38.34499891 134.27344777 36.59824907 134.70311841 34.85180664 135.1340332 C32.33296473 135.75530445 29.81308255 136.37219226 27.29296875 136.98828125 C26.51976791 137.17998398 25.74656708 137.37168671 24.94993591 137.56919861 C20.48263717 138.65615915 16.0781177 139.48140382 11.515625 140.0546875 C11.763125 141.3334375 12.010625 142.6121875 12.265625 143.9296875 C12.88176738 149.68337006 11.45878355 154.11588298 8.515625 159.0546875 C4.45014241 163.71605643 -0.09071691 166.65212944 -6.31640625 167.390625 C-13.74501589 167.48798555 -19.48380857 166.88131626 -25.01171875 161.59375 C-30.46512851 155.36579798 -30.93605507 150.59490922 -30.79296875 142.47265625 C-30.23036291 136.24126247 -27.64252081 132.95369104 -23.109375 128.7421875 C-17.69956037 124.43501025 -12.33160227 123.39287371 -5.484375 124.0546875 C-2.76044745 124.593895 -0.15875222 125.29057972 2.515625 126.0546875 C14.22798282 114.41613965 14.22798282 114.41613965 23.515625 101.0546875 C21.79484459 100.1837496 20.06356177 99.33354192 18.328125 98.4921875 C16.88373047 97.77869141 16.88373047 97.77869141 15.41015625 97.05078125 C12.18940775 95.9424265 10.70092954 95.93655834 7.515625 97.0546875 C6.7525 97.8384375 5.989375 98.6221875 5.203125 99.4296875 C1.00871807 103.52655008 -3.64159552 105.16567192 -9.484375 105.4296875 C-16.67092074 105.0507095 -21.05080847 102.89462675 -25.921875 97.5546875 C-30.82374222 91.79907042 -30.89293399 86.98410047 -30.82421875 79.578125 C-30.26053932 73.7340003 -28.06354954 70.30088327 -23.69921875 66.5 C-17.22264002 61.63225293 -11.34293906 61.32759602 -3.484375 62.0546875 C1.34545067 63.55574443 5.33286327 66.07623534 8.515625 70.0546875 C8.515625 70.7146875 8.515625 71.3746875 8.515625 72.0546875 C13.465625 69.7446875 18.415625 67.4346875 23.515625 65.0546875 C16.32171032 56.58762297 9.04941533 48.22184958 1.515625 40.0546875 C0.44183594 40.37824219 -0.63195312 40.70179687 -1.73828125 41.03515625 C-7.93543945 42.72176552 -13.50999084 42.7462915 -19.45703125 40.30859375 C-24.31572711 37.30350441 -28.67669428 32.47772965 -30.484375 27.0546875 C-31.15213971 19.5471043 -31.62322257 12.81484429 -26.91015625 6.6015625 C-19.95262629 -0.94688096 -9.85535087 -3.749992 0 0 Z M7.828125 32.3046875 C6.30808762 33.930916 6.30808762 33.930916 6.65234375 35.84765625 C7.85185651 38.91428389 9.74582841 40.73880496 12.015625 43.1171875 C16.43069065 47.83630358 20.56362899 52.6953894 24.60546875 57.7421875 C26.16602102 59.63144506 27.74420028 61.36655861 29.515625 63.0546875 C37.69387452 60.65761436 44.98213778 56.96609978 52.515625 53.0546875 C52.515625 49.0946875 52.515625 45.1346875 52.515625 41.0546875 C42.97057521 38.37703327 33.36103268 36.03914781 23.703125 33.8046875 C22.53990723 33.53446777 21.37668945 33.26424805 20.17822266 32.98583984 C19.08687012 32.73527832 17.99551758 32.4847168 16.87109375 32.2265625 C15.88778076 32.0006543 14.90446777 31.77474609 13.89135742 31.54199219 C10.62506981 30.78614071 10.62506981 30.78614071 7.828125 32.3046875 Z M48.9453125 60.0234375 C48.04941406 60.42949219 47.15351562 60.83554688 46.23046875 61.25390625 C45.29332031 61.68316406 44.35617188 62.11242187 43.390625 62.5546875 C42.44574219 62.98394531 41.50085938 63.41320312 40.52734375 63.85546875 C38.18856559 64.91854973 35.85142668 65.9850863 33.515625 67.0546875 C36.79093396 71.69189469 39.81998107 75.74011532 44.515625 79.0546875 C46.69432892 76.62771474 48.85638541 74.18648263 51.015625 71.7421875 C51.63566406 71.05189453 52.25570312 70.36160156 52.89453125 69.65039062 C53.48105469 68.98330078 54.06757812 68.31621094 54.671875 67.62890625 C55.48881836 66.70984497 55.48881836 66.70984497 56.32226562 65.7722168 C57.80092462 63.99264221 57.80092462 63.99264221 57.515625 61.0546875 C56.855625 60.0646875 56.195625 59.0746875 55.515625 58.0546875 C52.9159235 58.0546875 51.31303877 58.94447363 48.9453125 60.0234375 Z M87.203125 62.9296875 C82.57261943 66.59101748 78.47359778 68.00561029 72.515625 68.0546875 C68.80510563 67.57070671 65.16731542 66.86692011 61.515625 66.0546875 C60.92394531 66.77914062 60.33226563 67.50359375 59.72265625 68.25 C55.67462623 73.20272841 51.62364501 78.15156684 47.515625 83.0546875 C50.7268329 87.51875303 54.07603039 91.87746006 57.578125 96.1171875 C58.20847656 96.89191406 58.83882812 97.66664062 59.48828125 98.46484375 C61.39413636 100.33694165 61.39413636 100.33694165 63.8359375 99.82421875 C64.72023438 99.57027344 65.60453125 99.31632812 66.515625 99.0546875 C75.28983699 98.32088244 81.57893213 98.36734523 88.515625 104.0546875 C89.505625 104.5496875 89.505625 104.5496875 90.515625 105.0546875 C92.38846196 104.20274282 92.38846196 104.20274282 94.39453125 102.8515625 C95.52858398 102.12259766 95.52858398 102.12259766 96.68554688 101.37890625 C97.86987305 100.59966797 97.86987305 100.59966797 99.078125 99.8046875 C99.87154297 99.30066406 100.66496094 98.79664063 101.48242188 98.27734375 C102.61454102 97.54064453 102.61454102 97.54064453 103.76953125 96.7890625 C104.46377197 96.33756836 105.1580127 95.88607422 105.87329102 95.42089844 C107.80821121 94.05540963 107.80821121 94.05540963 108.515625 91.0546875 C108.37125 90.4771875 108.226875 89.8996875 108.078125 89.3046875 C106.72568131 83.89491275 107.69865816 78.48168152 108.515625 73.0546875 C105.53893402 71.05098324 102.5588727 69.05235087 99.578125 67.0546875 C98.72798828 66.48234375 97.87785156 65.91 97.00195312 65.3203125 C96.19306641 64.77890625 95.38417969 64.2375 94.55078125 63.6796875 C93.8019165 63.17695312 93.05305176 62.67421875 92.28149414 62.15625 C89.55769819 60.45712553 89.89258095 60.74904754 87.203125 62.9296875 Z M18.828125 73.5546875 C18.12623047 73.88855469 17.42433594 74.22242187 16.70117188 74.56640625 C14.97019363 75.39068161 13.2425779 76.22201156 11.515625 77.0546875 C11.515625 81.3446875 11.515625 85.6346875 11.515625 90.0546875 C13.73826754 91.0923217 15.96688165 92.10964929 18.203125 93.1171875 C18.82896484 93.41173828 19.45480469 93.70628906 20.09960938 94.00976562 C22.86186122 95.23904 25.12764261 96.05697311 28.16796875 96.0390625 C31.36702026 94.69769648 33.08739889 92.82104559 35.390625 90.2421875 C36.59332031 88.93314453 36.59332031 88.93314453 37.8203125 87.59765625 C39.68919743 85.29149184 39.68919743 85.29149184 39.546875 83.08984375 C38.07508922 80.18529681 36.2003322 77.82432932 34.140625 75.3046875 C33.34914063 74.31984375 32.55765625 73.335 31.7421875 72.3203125 C31.00742188 71.57265625 30.27265625 70.825 29.515625 70.0546875 C25.44128491 70.0546875 22.4196206 71.81762427 18.828125 73.5546875 Z M43.515625 87.0546875 C40.545625 90.6846875 37.575625 94.3146875 34.515625 98.0546875 C37.06012612 100.59918862 38.14541262 101.54152299 41.23828125 102.87890625 C41.94146484 103.18505859 42.64464844 103.49121094 43.36914062 103.80664062 C44.09810547 104.11537109 44.82707031 104.42410156 45.578125 104.7421875 C46.67737305 105.22268555 46.67737305 105.22268555 47.79882812 105.71289062 C51.52118901 107.44213522 51.52118901 107.44213522 55.515625 108.0546875 C57.1602924 105.59142038 57.1602924 105.59142038 58.515625 103.0546875 C56.39125328 100.76243773 54.26601981 98.47098866 52.140625 96.1796875 C51.53734375 95.52871094 50.9340625 94.87773438 50.3125 94.20703125 C49.73242188 93.58183594 49.15234375 92.95664063 48.5546875 92.3125 C48.02053223 91.7364502 47.48637695 91.16040039 46.93603516 90.56689453 C45.81721633 89.37576977 44.67116249 88.21022499 43.515625 87.0546875 Z M29.515625 103.0546875 C28.98195313 103.72113281 28.44828125 104.38757813 27.8984375 105.07421875 C23.03436186 111.09119814 18.03688841 116.87232601 12.77734375 122.546875 C10.58525044 124.97748624 8.53327086 127.47837998 6.515625 130.0546875 C7.30680404 132.05452284 7.30680404 132.05452284 8.515625 134.0546875 C12.70760079 135.45201276 16.09754296 134.21687346 20.26953125 133.21875 C21.12618881 133.01994232 21.98284637 132.82113464 22.86546326 132.61630249 C24.67607835 132.19456356 26.48580072 131.76897625 28.29467773 131.33984375 C31.06893916 130.68186613 33.8456478 130.0352158 36.62304688 129.390625 C38.38036248 128.97982551 40.13752925 128.5683887 41.89453125 128.15625 C42.72787491 127.96141022 43.56121857 127.76657043 44.41981506 127.56582642 C48.57521021 126.62477002 48.57521021 126.62477002 52.515625 125.0546875 C52.515625 121.0946875 52.515625 117.1346875 52.515625 113.0546875 C45.02704215 109.14274124 37.44155269 105.97411227 29.515625 103.0546875 Z " fill="#000000" transform="translate(40.484375,16.9453125)"/>
</svg>
