<?xml version="1.0" encoding="UTF-8"?>
<svg version="1.1" xmlns="http://www.w3.org/2000/svg" width="4191" height="1600">
<path d="M0 0 C0.92331116 0.25966553 1.84662231 0.51933105 2.7979126 0.78686523 C5.4567323 1.53824632 8.11167845 2.30191582 10.765625 3.0703125 C11.55413849 3.29312897 12.34265198 3.51594543 13.15505981 3.74551392 C19.04396523 5.47687596 25.46258693 7.36622437 29.6875 12 C32.52744214 19.68454931 31.79776237 27.94633992 30.875 35.9375 C30.74262939 37.08500732 30.61025879 38.23251465 30.47387695 39.41479492 C27.89246493 60.05158142 23.70391484 80.46821886 19.75 100.875 C19.52973145 102.01545776 19.30946289 103.15591553 19.08251953 104.33093262 C5.44500953 174.86196269 -9.71099019 245.10425105 -24.45985508 315.40929222 C-36.74569235 373.96195728 -36.74569235 373.96195728 -48.67896271 432.58724976 C-49.11224819 434.74888208 -49.54638229 436.91034254 -49.98065186 439.07177734 C-52.80719969 453.15366552 -55.55441873 467.24938001 -58.1328125 481.37890625 C-58.34783417 482.53647934 -58.56285583 483.69405243 -58.78439331 484.88670349 C-59.75540297 490.2970506 -60.51759249 495.37651733 -60.25 500.875 C-51.68892177 503.91622364 -42.95066591 505.09045372 -33.9831543 506.21655273 C-33.17331066 506.32067187 -32.36346701 506.42479101 -31.52908266 506.53206527 C-8.49885424 509.48705153 14.61050831 511.74361273 37.71406579 514.03587222 C41.55190875 514.41725556 45.389521 514.80088601 49.22707176 515.18519783 C111.12931669 521.38334036 173.06273066 527.25593309 234.99761105 533.11708832 C257.64074562 535.2599314 280.28366321 537.40503269 302.92578125 539.55859375 C303.5999632 539.62270807 304.27414515 539.68682238 304.96875685 539.75287956 C348.97983339 543.93864575 392.97875759 548.23970184 436.96902558 552.63876215 C439.034605 552.8452581 441.1002021 553.05157619 443.16580606 553.25782657 C480.58199216 556.99396299 517.98311312 560.84942477 555.36064148 564.95521545 C556.07736757 565.03388774 556.79409365 565.11256003 557.53253871 565.19361633 C571.32160297 566.71271383 585.09630884 568.36175165 598.85739899 570.1159668 C600.52186015 570.32723082 602.1866851 570.53565187 603.85189056 570.7409668 C625.40199299 573.40959264 625.40199299 573.40959264 630.25 578.5 C632.79120062 584.21770139 633.48573816 589.25415 631.6875 595.3125 C625.50970924 611.09716362 612.90857886 622.71507779 599.75 632.875 C598.94175781 633.54917969 598.13351563 634.22335937 597.30078125 634.91796875 C579.20719603 649.98138833 579.20719603 649.98138833 568.62187195 650.01544189 C567.01986781 650.02402033 567.01986781 650.02402033 565.38549995 650.03277206 C564.2072962 650.03388111 563.02909245 650.03499016 561.81518555 650.03613281 C560.56582151 650.04101841 559.31645748 650.04590401 558.02923393 650.05093765 C554.55170445 650.06397978 551.07419251 650.07022907 547.59664273 650.07483482 C545.37264592 650.07814595 543.14865809 650.08304702 540.92466545 650.0884552 C530.2966785 650.11395995 519.66872319 650.12304052 509.04070759 650.12456322 C506.43779038 650.12499995 503.83487356 650.12586488 501.23195648 650.12678528 C414.07426164 650.15192147 326.95839997 648.62842393 80.55269539 642.46215105 C63.84785891 642.00765858 47.1428825 641.55906163 30.4375 641.125 C28.58704512 641.07690941 28.58704512 641.07690941 26.69920731 641.02784729 C-4.5967158 640.21886598 -35.88014482 639.60082815 -67.1875 639.625 C-67.93790684 639.62526688 -68.68831367 639.62553375 -69.46146011 639.62580872 C-74.25437173 639.6285348 -79.04700394 639.64522693 -83.83984375 639.671875 C-84.98659576 639.67626587 -86.13334778 639.68065674 -87.31484985 639.68518066 C-93.36899004 639.7393121 -99.24566842 640.08937917 -105.25 640.875 C-108.38930402 648.33751837 -110.95503107 655.90070904 -113.33203125 663.63671875 C-113.71736526 664.8853923 -114.10269928 666.13406586 -114.49971008 667.420578 C-119.10179624 682.42662609 -123.31072064 697.54595739 -127.53295898 712.66223145 C-129.93131581 721.24802377 -132.34715983 729.82890938 -134.76171875 738.41015625 C-135.11840448 739.67837282 -135.11840448 739.67837282 -135.48229599 740.97220993 C-139.67445833 755.87518154 -143.92199925 770.76081957 -148.25 785.625 C-148.5210556 786.56058746 -148.79211121 787.49617493 -149.07138062 788.46011353 C-151.72038247 797.59517736 -154.44431285 806.70641354 -157.35546875 815.76171875 C-157.69596252 816.85700897 -157.69596252 816.85700897 -158.04333496 817.97442627 C-160.32499476 824.92304343 -164.10227608 829.66761702 -169.25 834.875 C-170.00796875 835.67292969 -170.7659375 836.47085938 -171.546875 837.29296875 C-175.56162865 841.42539622 -179.78007901 845.24968003 -184.15234375 848.99609375 C-187.43448263 851.93596116 -190.48954594 855.09399313 -193.5625 858.25 C-196.3379485 860.96090318 -199.22290598 863.49198461 -202.15332031 866.03222656 C-205.55511598 869.02206746 -208.83538761 872.13789919 -212.125 875.25 C-218.09628301 880.87336086 -224.12502079 886.4189605 -230.25 891.875 C-231.91745109 893.37412796 -233.58410291 894.87414535 -235.25 896.375 C-245.25 905.375 -245.25 905.375 -247.7421875 907.6171875 C-249.43592894 909.14208244 -251.12861169 910.66815402 -252.8203125 912.1953125 C-258.97450123 917.74725646 -265.16482631 923.24795293 -271.47265625 928.625 C-277.03122479 933.36579323 -282.55937974 938.11586217 -287.9375 943.0625 C-291.41136309 946.25236844 -294.94910025 949.29548894 -298.625 952.25 C-302.82814155 955.63885771 -306.81205157 959.18737436 -310.75 962.875 C-315.53318757 967.35413562 -320.45814687 971.55951213 -325.5703125 975.6640625 C-328.38253315 977.9843495 -331.06797263 980.40571134 -333.75 982.875 C-338.2198512 986.98878909 -342.84044893 990.84587297 -347.56640625 994.66015625 C-350.19708557 996.83132827 -352.72942424 999.07741357 -355.25 1001.375 C-360.4250993 1006.07963572 -365.81141197 1010.48018139 -371.25 1014.875 C-372.46942517 1015.87417657 -373.68813577 1016.87422565 -374.90625 1017.875 C-389.8719924 1030.14791857 -405.30746466 1041.7628085 -420.93408203 1053.17822266 C-423.10714157 1054.77033353 -425.27119512 1056.37392502 -427.43359375 1057.98046875 C-452.86255698 1076.75216642 -479.91108418 1093.51151087 -507.38378906 1109.09564209 C-514.59349138 1113.1858181 -521.77627476 1117.30328158 -528.8125 1121.6875 C-529.44260986 1122.07768311 -530.07271973 1122.46786621 -530.72192383 1122.86987305 C-534.86326083 1125.43845042 -534.86326083 1125.43845042 -538.25 1128.875 C-538.25 1129.865 -538.25 1130.855 -538.25 1131.875 C-523.75744715 1135.16148134 -509.02992948 1136.30302189 -494.25718689 1137.60781574 C-492.09415028 1137.79961042 -489.93138203 1137.99419594 -487.76867676 1138.18968964 C-464.66216026 1140.27810512 -441.54533759 1142.22468211 -418.41075134 1143.97712708 C-417.21854034 1144.06755793 -416.02632934 1144.15798878 -414.79799074 1144.25115997 C-410.94869358 1144.54287909 -407.09935547 1144.83405133 -403.25 1145.125 C-401.36050845 1145.26783043 -401.36050845 1145.26783043 -399.43284535 1145.41354632 C-341.72656406 1149.77192432 -284.00786283 1153.95721054 -226.28745647 1158.12368278 C-217.65529862 1158.74678578 -209.02316485 1159.37022111 -200.39104892 1159.99390451 C-129.03094294 1165.14975053 -57.66947984 1170.28659852 55.21596885 1178.38278494 C62.56189102 1178.90946994 69.90780772 1179.43623111 77.25372411 1179.96299674 C95.75833138 1181.28993406 114.2629504 1182.61670739 132.76757812 1183.94335938 C133.50212547 1183.9960214 134.23667281 1184.04868342 134.99347916 1184.10294126 C146.13375025 1184.90161999 157.27402563 1185.70023898 168.41430664 1186.4987793 C169.15054788 1186.55155343 169.88678912 1186.60432757 170.6453407 1186.65870092 C191.58177779 1188.15941966 212.51827856 1189.65924753 233.45482763 1191.15840318 C271.28129586 1193.86695813 309.10762187 1196.57748992 346.93359375 1199.29296875 C347.65191804 1199.34453582 348.37024232 1199.39610288 349.11033401 1199.44923259 C429.51527585 1205.22151007 509.91544526 1211.05461132 590.30560032 1217.02994803 C593.43533687 1217.26256097 596.56508099 1217.49507197 599.69482684 1217.7275598 C640.26327495 1220.74149896 680.82934832 1223.78438623 721.38842773 1226.92211914 C722.12053617 1226.97874483 722.85264461 1227.03537053 723.60693815 1227.09371215 C764.48661779 1230.25654146 805.36501657 1233.46465097 846.2083931 1237.07014084 C848.16493307 1237.24250587 850.12163255 1237.41305748 852.07833862 1237.58352661 C859.97696086 1238.27681194 867.86417756 1239.04961798 875.75 1239.875 C877.10283173 1240.0104603 878.45569791 1240.14557695 879.80859375 1240.28039551 C883.3604647 1240.63764703 886.90801501 1241.02542179 890.45457458 1241.43190384 C891.81898856 1241.58443635 893.18438583 1241.72845939 894.55067444 1241.86317062 C901.75314892 1242.58138869 907.37623709 1243.1596697 912.62097168 1248.44491577 C915.27358385 1251.80484817 915.14555072 1254.94466991 915.0859375 1259.09375 C912.89404711 1277.24056345 890.75062381 1294.04774036 878.39672852 1306.35864258 C876.55041754 1308.19954708 874.70957727 1310.04580272 872.86914062 1311.89257812 C866.99647708 1317.76854755 861.08548199 1323.49445329 854.75 1328.875 C852.97429779 1330.49467817 851.20291693 1332.11911718 849.4375 1333.75 C845.02646827 1337.76880593 840.51264642 1341.60365324 835.8671875 1345.34765625 C833.53762058 1347.22547916 831.23742603 1349.13524117 828.9453125 1351.05859375 C785.40960735 1387.49569358 744.18089215 1414.41782198 686.24780273 1414.11010742 C685.14092318 1414.10720715 684.03404363 1414.10430688 682.89362228 1414.10131872 C655.85318309 1414.02527243 628.83793839 1413.16897599 601.8153522 1412.24938369 C595.5680534 1412.03755829 589.32043207 1411.83553739 583.07285932 1411.63198895 C565.63133327 1411.06309611 548.19057752 1410.47217693 530.75 1409.875 C529.54088046 1409.83365149 528.33176092 1409.79230299 527.0860014 1409.7497015 C500.56741632 1408.84246947 474.04985189 1407.90707407 447.53256166 1406.96284389 C416.45195481 1405.85627166 385.37075216 1404.76710322 354.2890625 1403.69140625 C353.52355935 1403.66491222 352.75805619 1403.63841818 351.96935597 1403.6111213 C244.92624598 1399.90746587 137.87405025 1396.47179798 -149.54433441 1387.18602848 C-176.55974702 1386.31620922 -203.57512077 1385.44520246 -230.59043586 1384.5723598 C-315.57227844 1381.82667931 -400.5546725 1379.09845415 -793.85271019 1366.74251783 C-809.20886298 1366.26291 -824.56501126 1365.78315903 -839.92114639 1365.30298615 C-841.43646776 1365.25560413 -842.95178912 1365.20822217 -844.46711049 1365.16084027 C-845.21577186 1365.13743065 -845.96443324 1365.11402104 -846.73578132 1365.08990204 C-876.79447116 1364.15000933 -906.8531947 1363.21120964 -936.91199404 1362.27482498 C-939.71355068 1362.18754866 -942.51510724 1362.10026967 -945.31666374 1362.01298904 C-946.348973 1361.98082931 -946.348973 1361.98082931 -947.40213699 1361.94801988 C-957.46126941 1361.63462586 -967.52037675 1361.32043835 -977.57946968 1361.00577927 C-1035.31296015 1359.20014829 -1093.04740291 1357.45030514 -1150.78668785 1355.83938599 C-1151.82987726 1355.81027101 -1152.87306668 1355.78115603 -1153.94786789 1355.75115877 C-1158.96720908 1355.61114923 -1163.98656178 1355.47157623 -1169.0059365 1355.33277416 C-1177.58534267 1355.09483527 -1186.16441942 1354.85099536 -1194.74287033 1354.58061218 C-1195.4729872 1354.55781498 -1196.20310406 1354.53501777 -1196.95534568 1354.51152974 C-1200.24673597 1354.40865598 -1203.53799673 1354.30359299 -1206.82916224 1354.19366169 C-1229.01108899 1353.49185895 -1247.38517321 1355.53092404 -1267.93341064 1363.96870422 C-1277.82063143 1368.00246499 -1287.98072184 1371.25132317 -1298.11776733 1374.59289551 C-1301.63387768 1375.75292892 -1305.14692665 1376.92184965 -1308.65942383 1378.09277344 C-1410.87492247 1412.10728448 -1516.78024547 1439.50266699 -1697.25 1459.5625 C-1698.63733841 1459.65390762 -1698.63733841 1459.65390762 -1700.05270386 1459.74716187 C-1723.15995841 1461.24855873 -1746.23489204 1462.03523051 -1769.390625 1462.04296875 C-1771.7357383 1462.04620175 -1774.08085142 1462.04956713 -1776.42596436 1462.05305481 C-1781.3134406 1462.05898593 -1786.20089933 1462.0609013 -1791.08837891 1462.06030273 C-1795.99369032 1462.06022205 -1800.8989072 1462.06708313 -1805.80419922 1462.08081055 C-1837.34498271 1462.16761056 -1868.75793001 1461.67578356 -1900.25 1459.875 C-1901.6143786 1459.79851028 -1902.97875841 1459.72204206 -1904.34313965 1459.64559937 C-1912.06719505 1459.20406408 -1919.78417951 1458.69170828 -1927.5 1458.125 C-1929.21088303 1458.00094788 -1929.21088303 1458.00094788 -1930.95632935 1457.87438965 C-2031.42008836 1450.51772083 -2133.67195206 1436.41939077 -2326.1875 1364.375 C-2327.3230835 1363.83617187 -2328.45866699 1363.29734375 -2329.62866211 1362.7421875 C-2336.45873691 1359.43335269 -2342.88708918 1355.76073085 -2349.27954102 1351.68945312 C-2354.72843143 1348.36109333 -2359.57905677 1346.30136008 -2365.890625 1345.30859375 C-2366.65795959 1345.18471786 -2367.42529419 1345.06084198 -2368.21588135 1344.93321228 C-2381.25794777 1342.98011207 -2394.50167228 1342.50051902 -2407.65332031 1341.72094727 C-2472.35185849 1337.82391606 -2472.35185849 1337.82391606 -2494.25 1314.875 C-2494.80816406 1314.33617187 -2495.36632813 1313.79734375 -2495.94140625 1313.2421875 C-2505.44045987 1303.37110828 -2508.57558827 1289.89617846 -2511.70898438 1277.03417969 C-2514.78142141 1264.77216114 -2519.79656347 1254.52213784 -2527.8515625 1244.78515625 C-2544.38868062 1224.71976048 -2557.29771451 1203.33342483 -2566.25 1178.875 C-2566.59160156 1178.00230469 -2566.93320313 1177.12960937 -2567.28515625 1176.23046875 C-2575.5133056 1151.92872532 -2565.47173989 1123.08915229 -2554.99853516 1101.0690918 C-2551.61135093 1094.23366138 -2547.5927463 1087.86218831 -2543.43798828 1081.47290039 C-2536.85403705 1071.87524668 -2536.85403705 1071.87524668 -2534.25 1060.875 C-2535.73805142 1059.55687729 -2535.73805142 1059.55687729 -2537.78125 1058.44921875 C-2538.94817383 1057.76037598 -2538.94817383 1057.76037598 -2540.13867188 1057.05761719 C-2541.00041016 1056.56422852 -2541.86214844 1056.07083984 -2542.75 1055.5625 C-2543.64783203 1055.03688477 -2544.54566406 1054.51126953 -2545.47070312 1053.96972656 C-2547.40214394 1052.84072971 -2549.33650522 1051.71671738 -2551.2734375 1050.59716797 C-2554.16877615 1048.92199418 -2557.0544303 1047.2313424 -2559.9375 1045.53515625 C-2580.58658601 1033.40541516 -2601.3981175 1021.55577005 -2622.30834961 1009.8828125 C-2628.81049422 1006.25052638 -2635.28941317 1002.58065329 -2641.75 998.875 C-2652.47397198 992.72624814 -2663.25973949 986.68993649 -2674.05175781 980.66162109 C-2679.32757155 977.71441461 -2684.601603 974.76402817 -2689.875 971.8125 C-2690.91398437 971.23113281 -2691.95296875 970.64976562 -2693.0234375 970.05078125 C-2698.92706022 966.74475253 -2704.82093886 963.42221714 -2710.70654297 960.08422852 C-2720.97136844 954.26282907 -2731.28343833 948.53207797 -2741.6229248 942.8447876 C-2749.69372452 938.40439759 -2757.73993544 933.92433679 -2765.75 929.375 C-2777.94710875 922.45112584 -2790.2312828 915.68788529 -2802.51953125 908.92773438 C-2808.64036235 905.56023767 -2814.75784298 902.18666489 -2820.875 898.8125 C-2821.47580383 898.48116058 -2822.07660767 898.14982117 -2822.69561768 897.80844116 C-2832.50515532 892.39796837 -2842.30026682 886.96185103 -2852.09082031 881.51708984 C-2863.29242222 875.29017315 -2874.51416501 869.10004849 -2885.73851013 862.91426086 C-2890.05541474 860.53477036 -2894.36995049 858.15102178 -2898.68359375 855.765625 C-2901.14307646 854.40597355 -2903.60271895 853.04661163 -2906.0625 851.6875 C-2906.66650635 851.35375366 -2907.2705127 851.02000732 -2907.89282227 850.67614746 C-2916.11330221 846.13586226 -2924.35824844 841.64309313 -2932.625 837.1875 C-2940.30354347 833.0489038 -2947.92155255 828.81902002 -2955.5 824.5 C-2964.60137971 819.31392784 -2973.80441431 814.33482507 -2983.05218506 809.41653442 C-2990.97466111 805.2004697 -2998.83344017 800.89139874 -3006.625 796.4375 C-3016.04851183 791.05263609 -3025.59413358 785.9279211 -3035.18515015 780.85055542 C-3044.63296645 775.84586573 -3053.97732434 770.69025249 -3063.26171875 765.38671875 C-3069.03413146 762.09873935 -3074.85389263 758.9351776 -3080.75 755.875 C-3087.6098135 752.31464292 -3094.35164519 748.58344818 -3101.0625 744.75 C-3110.04062753 739.6248836 -3119.11493306 734.71190748 -3128.25 729.875 C-3140.12756212 723.58174315 -3151.88051843 717.10313623 -3163.54296875 710.41748047 C-3166.3007484 708.8460833 -3169.07043519 707.29769882 -3171.84375 705.75390625 C-3209.79573582 684.54080371 -3209.79573582 684.54080371 -3214.82421875 669.11328125 C-3216.64575223 659.53769698 -3216.24066522 648.38344071 -3211.25 639.875 C-3188.48853566 610.20902976 -3115.75535649 608.64571178 -3081.56347656 604.11425781 C-3067.18676015 602.24512111 -3052.78037154 600.6515248 -3038.36612701 599.10305023 C-3036.11817101 598.86079309 -3033.87043914 598.61653134 -3031.6227417 598.37188721 C-3021.17073496 597.23535332 -3010.71593464 596.12936254 -3000.25769043 595.05172729 C-2996.77754362 594.69263328 -2993.29841767 594.32543667 -2989.81994629 593.95046997 C-2971.4014091 591.97258621 -2953.1413033 590.54013388 -2934.60546875 590.5546875 C-2933.82029058 590.5543111 -2933.03511242 590.55393471 -2932.22614098 590.55354691 C-2918.30036036 590.58048806 -2904.87792972 591.88979605 -2891.25 594.875 C-2890.04843262 595.13812988 -2888.84686523 595.40125977 -2887.60888672 595.67236328 C-2866.92481508 600.33003559 -2846.73851609 606.51097172 -2826.60107422 613.1060791 C-2824.22342421 613.88369164 -2821.84431008 614.65667573 -2819.46484375 615.42871094 C-2792.66630847 624.13593505 -2766.13841888 633.55467218 -2739.63928223 643.12922668 C-2731.55281297 646.04947158 -2723.45869816 648.947639 -2715.359375 651.83203125 C-2713.63349152 652.44669502 -2713.63349152 652.44669502 -2711.8727417 653.07377625 C-2709.54232514 653.90366671 -2707.21190114 654.73353626 -2704.88146973 655.56338501 C-2679.46955966 664.61590799 -2654.11066519 673.80995669 -2628.76545715 683.04728699 C-2615.37181839 687.92680804 -2601.96708361 692.77564552 -2588.5625 697.625 C-2561.09743995 707.56148925 -2561.09743995 707.56148925 -2549.06640625 711.9453125 C-2548.19449646 712.26300598 -2547.32258667 712.58069946 -2546.42425537 712.90802002 C-2544.68727269 713.54096528 -2542.95029349 714.17392011 -2541.21331787 714.80688477 C-2523.1640582 721.38356221 -2505.09064227 727.89186827 -2487.00984573 734.3812027 C-2457.05996179 745.13068456 -2427.14345293 755.96943112 -2397.25 766.875 C-2395.98873105 767.33506871 -2394.72745985 767.79513127 -2393.46618652 768.25518799 C-2381.47830822 772.62791916 -2369.49080811 777.00168466 -2357.50537109 781.38110352 C-2356.84515017 781.62234042 -2356.18492924 781.86357733 -2355.50470161 782.11212444 C-2349.86070711 784.17438467 -2349.86070711 784.17438467 -2347.57196426 785.01071739 C-2338.70179547 788.25178003 -2329.82867174 791.48462701 -2320.953125 794.7109375 C-2291.00781579 805.60296248 -2261.15575765 816.73276542 -2231.33451843 827.95894814 C-2222.74527521 831.19210475 -2214.14867409 834.40465293 -2205.54296875 837.59375 C-2202.77663709 838.62128235 -2200.01043822 839.64917144 -2197.2442627 840.67712402 C-2195.56643033 841.29915163 -2193.88782363 841.91909537 -2192.20837402 842.53674316 C-2189.94808348 843.36808905 -2187.69060474 844.20667465 -2185.43359375 845.046875 C-2184.20181396 845.5015918 -2182.97003418 845.95630859 -2181.70092773 846.42480469 C-2178.25 847.875 -2178.25 847.875 -2174.92602539 850.05175781 C-2169.24411088 853.38616517 -2162.79954663 852.38232875 -2156.63110352 850.90966797 C-2155.0213483 850.45399339 -2153.41654708 849.98055265 -2151.81640625 849.4921875 C-2150.92321182 849.22775848 -2150.0300174 848.96332947 -2149.10975647 848.69088745 C-2136.95145151 844.9964011 -2125.07792922 840.46614072 -2113.1875 836 C-2108.78667807 834.35126836 -2104.38523727 832.70421951 -2099.98238373 831.06092072 C-2098.71614963 830.58826442 -2097.45006151 830.1152169 -2096.18412018 829.64177704 C-2087.54885531 826.41525091 -2078.87235634 823.34266415 -2070.13671875 820.3984375 C-2067.15427893 819.37694641 -2064.17275706 818.35281724 -2061.19143677 817.32806396 C-2059.34207379 816.70225151 -2057.4878352 816.09063171 -2055.62863159 815.49468994 C-2042.92712875 811.41905312 -2035.85586116 806.8784389 -2028.25 795.875 C-2027.25252097 794.61027076 -2026.24706347 793.35169595 -2025.2265625 792.10546875 C-2024.45054688 791.10128906 -2023.67453125 790.09710937 -2022.875 789.0625 C-2010.63572851 773.34699892 -1997.96079055 758.00782687 -1984.48828125 743.33203125 C-1982.49682664 741.14594931 -1980.55327487 738.92917394 -1978.625 736.6875 C-1975.71512695 733.33363224 -1972.63117443 730.20854773 -1969.4375 727.125 C-1967.62123397 725.25684066 -1965.93758171 723.35729511 -1964.24609375 721.37890625 C-1959.70501937 716.15298026 -1954.8098293 711.28484575 -1949.9074707 706.40209961 C-1948.31541034 704.81540054 -1946.7287701 703.22342258 -1945.14257812 701.63085938 C-1940.2096828 696.6950769 -1935.25090823 691.83705026 -1929.91772461 687.32836914 C-1928.10946253 685.75252605 -1926.42899894 684.08720936 -1924.75 682.375 C-1921.76127663 679.33905075 -1918.63293521 676.52991341 -1915.40625 673.75 C-1913.05037042 671.70140906 -1910.7449254 669.60296998 -1908.4375 667.5 C-1904.14526382 663.62588119 -1899.72221326 659.95482452 -1895.2265625 656.3203125 C-1892.49765899 654.07845739 -1889.81981197 651.79108125 -1887.15185547 649.4777832 C-1880.59268527 643.79190731 -1873.89488289 638.3744204 -1866.95263672 633.16113281 C-1865.19902413 631.83649399 -1863.46027779 630.49396818 -1861.72265625 629.1484375 C-1795.32759312 578.08604026 -1712.2003176 545.19996603 -1121.93963623 588.41531372 C-1091.29858988 592.42497058 -1060.67975293 596.59941998 -1030.05957031 600.76464844 C-1029.34817847 600.86141817 -1028.63678662 600.95818791 -1027.90383744 601.05789006 C-1027.19236613 601.15467104 -1026.48089482 601.25145203 -1025.74786377 601.35116577 C-1025.03647499 601.44793484 -1024.32508621 601.5447039 -1023.5921402 601.64440536 C-1022.15642477 601.83970502 -1020.72071004 602.03500989 -1019.28499603 602.23031998 C-936.09115965 613.54719045 -852.83175136 624.70990373 -718.15856934 636.58074951 C-714.53648393 636.85343251 -710.91520101 637.13500954 -707.29394531 637.41845703 C-674.7063112 639.92090903 -642.05189268 640.300631 -609.38180542 640.51055908 C-604.60083246 640.54156486 -599.82049249 640.58940539 -595.03982544 640.65155029 C-589.35624181 640.72317199 -583.67384684 640.75337281 -577.9898262 640.75272179 C-575.86688636 640.75866735 -573.74393635 640.77818946 -571.62125778 640.81202126 C-560.55057122 641.3702818 -560.55057122 641.3702818 -550.26272583 638.16372681 C-548.23029111 636.16669945 -546.76894823 634.27332541 -545.25 631.875 C-544.16346696 630.63021863 -543.06130303 629.39873964 -541.9375 628.1875 C-540.70708164 626.75107123 -539.47809367 625.3134168 -538.25 623.875 C-537.35989915 622.86021709 -536.46923185 621.84593088 -535.578125 620.83203125 C-525.95376008 610.94046005 -525.95376008 610.94046005 -521.25 598.875 C-533.51374557 595.7385206 -545.73221811 593.59264771 -558.2734375 591.91796875 C-560.16500737 591.65998649 -562.05655766 591.40186064 -563.9480896 591.14360046 C-582.32841831 588.65567207 -600.74687511 586.52982249 -619.18110657 584.48696518 C-623.88528158 583.96402816 -628.58859147 583.43341249 -633.29199219 582.90356445 C-641.25648604 582.00711179 -649.22133247 581.11386996 -657.18652344 580.22363281 C-757.51011703 569.01032068 -857.8082368 557.47968382 -1094.9375 514.1875 C-1099.69536584 508.08227392 -1098.91711674 500.2209522 -1098.25 492.875 C-1095.62296605 485.17060447 -1088.13670246 479.47520725 -1081.06835938 475.96118164 C-1080.42705078 475.6646167 -1079.78574219 475.36805176 -1079.125 475.0625 C-1078.40892578 474.73048584 -1077.69285156 474.39847168 -1076.95507812 474.05639648 C-1065.80353311 469.12071163 -1054.01206648 465.85124131 -1042.31768799 462.47375488 C-1040.17887753 461.85440457 -1038.04223421 461.22795005 -1035.90576172 460.60058594 C-1032.22245578 459.52196402 -1028.53355702 458.46473889 -1024.83984375 457.42233276 C-1023.42590135 457.02171441 -1022.01324681 456.61651705 -1020.60205078 456.20632935 C-1018.61249221 455.63076399 -1016.61803946 455.0766542 -1014.62109375 454.52734375 C-1013.48599365 454.20757568 -1012.35089355 453.88780762 -1011.18139648 453.55834961 C-1001.30440741 451.84154576 -990.91967834 453.00947514 -980.95759583 453.53575134 C-979.54819428 453.60796878 -978.13877891 453.6799169 -976.72935122 453.75162226 C-972.88276803 453.94810274 -969.03639242 454.14840841 -965.1900419 454.34938538 C-961.0216051 454.5665133 -956.85298437 454.78005651 -952.68438721 454.99407959 C-944.48638312 455.4155658 -936.28855679 455.84041838 -928.09078894 456.26647209 C-921.33717506 456.61741001 -914.5834988 456.96712439 -907.82977867 457.31601143 C-906.37410771 457.39121146 -906.37410771 457.39121146 -904.88902926 457.46793069 C-902.91423153 457.56994448 -900.93943367 457.67195588 -898.96463569 457.77396495 C-880.38027422 458.73409606 -861.7961135 459.69806885 -843.21201756 460.66332401 C-827.6534624 461.4713447 -812.09474347 462.27613961 -796.53588867 463.07836914 C-711.89808097 467.44286366 -627.26390911 471.86224933 -542.64525771 476.58551717 C-539.15823461 476.78014144 -535.67119358 476.97443908 -532.18413377 477.16840434 C-522.39164579 477.71310593 -512.59931243 478.26043681 -502.80723596 478.81248927 C-499.88974162 478.97693147 -496.97219675 479.14042096 -494.05459571 479.30295873 C-480.04908928 480.08409206 -466.04895908 480.91751195 -452.05769348 481.92564392 C-450.92264427 482.00566983 -449.78759506 482.08569574 -448.61815041 482.16814667 C-447.57408888 482.24580905 -446.53002735 482.32347142 -445.45432758 482.40348721 C-444.54191911 482.47051733 -443.62951064 482.53754746 -442.68945342 482.60660881 C-440.45789379 482.85212731 -438.40813149 483.26865338 -436.25 483.875 C-435.97341553 483.14514893 -435.69683105 482.41529785 -435.41186523 481.66333008 C-434.32095252 479.04527711 -433.09396593 476.70521067 -431.66015625 474.26171875 C-431.13292969 473.36001953 -430.60570313 472.45832031 -430.0625 471.52929688 C-429.485 470.55025391 -428.9075 469.57121094 -428.3125 468.5625 C-427.70277344 467.52287109 -427.09304687 466.48324219 -426.46484375 465.41210938 C-420.85072215 455.85580079 -415.18307576 446.33111694 -409.5189209 436.80441284 C-388.97070562 402.24202129 -369.09793711 367.29648246 -349.47558594 332.20141602 C-346.15333945 326.26246377 -342.814728 320.33328349 -339.45703125 314.41430664 C-328.33251328 294.80047673 -317.47436946 275.04088723 -306.76171875 255.19946289 C-303.62930115 249.40283038 -300.46246394 243.62762739 -297.25 237.875 C-292.83416136 229.96629062 -288.51401804 222.0074924 -284.20703125 214.0390625 C-280.56964307 207.30946844 -276.91715527 200.58841653 -273.25 193.875 C-262.17160804 173.58405052 -251.19546451 153.23790463 -240.25 132.875 C-239.62802734 131.71887207 -239.00605469 130.56274414 -238.36523438 129.37158203 C-231.36057621 116.35004897 -224.40804249 103.30486441 -217.59936523 90.17944336 C-213.72421152 82.73103669 -209.7195748 75.35871985 -205.67675781 68.00024414 C-202.30684957 61.85340401 -199.03733837 55.6614673 -195.8125 49.4375 C-190.44137485 39.10058104 -184.72333126 28.97582405 -178.94677734 18.86132812 C-177.17533542 15.74359034 -175.42339078 12.61552854 -173.67578125 9.484375 C-173.0916748 8.44071777 -172.50756836 7.39706055 -171.90576172 6.32177734 C-170.78822632 4.32393272 -169.67379699 2.3243464 -168.56298828 0.32275391 C-161.51847115 -12.23194197 -161.51847115 -12.23194197 -154.57421875 -14.50390625 C-105.57794653 -27.59702773 -47.43481965 -13.43211262 0 0 Z M-1718.12890625 655.92919922 C-1737.88963687 656.35701529 -1757.32196546 657.84683248 -1776.25 663.875 C-1776.87648438 664.07432129 -1777.50296875 664.27364258 -1778.1484375 664.47900391 C-1799.31976782 671.38200543 -1817.1712389 683.88376737 -1834.25 697.875 C-1835.06210938 698.51308594 -1835.87421875 699.15117188 -1836.7109375 699.80859375 C-1852.80866353 712.59492569 -1868.38507857 727.38627369 -1881.6796875 743.0859375 C-1883.45465381 745.1081628 -1885.33299023 746.98714627 -1887.25 748.875 C-1890.44261312 752.0248003 -1893.42161279 755.28719489 -1896.34375 758.6875 C-1898.55945648 761.23011399 -1900.84098592 763.70610198 -1903.125 766.1875 C-1908.04502496 771.58988035 -1912.69437987 777.16358827 -1917.25 782.875 C-1917.94971924 783.74922607 -1917.94971924 783.74922607 -1918.66357422 784.64111328 C-1920.15507372 786.50732207 -1921.64103103 788.37779903 -1923.125 790.25 C-1923.58962646 790.83305908 -1924.05425293 791.41611816 -1924.53295898 792.0168457 C-1929.26739443 797.43547199 -1929.26739443 797.43547199 -1931.25 804 C-1929.75455536 806.8039587 -1928.11329631 807.45951451 -1925.25 808.875 C-1922.00873051 809.76034742 -1918.7311271 810.32970609 -1915.41992188 810.8894043 C-1914.45014153 811.05881625 -1913.48036118 811.22822821 -1912.48119354 811.40277386 C-1902.59587823 813.07646927 -1892.66596199 814.24353441 -1882.69917297 815.30631447 C-1879.40739138 815.65775476 -1876.11691172 816.0198251 -1872.82653809 816.38420105 C-1864.64016819 817.28889852 -1856.45219537 818.17865393 -1848.26379395 819.0647583 C-1805.01077957 823.74642422 -1761.89495502 829.12012435 -1719.25 837.875 C-1718.13123474 838.10352661 -1718.13123474 838.10352661 -1716.98986816 838.33666992 C-1674.68423413 847.00022443 -1633.23198212 858.2849323 -1592.25 871.875 C-1591.5377124 872.11027405 -1590.8254248 872.3455481 -1590.09155273 872.58795166 C-1559.42774979 882.72081559 -1529.23215184 894.1773118 -1499.29110718 906.26690674 C-1488.05459331 910.80118525 -1476.79160698 915.16966202 -1465.25 918.875 C-1463.55230469 919.42607422 -1463.55230469 919.42607422 -1461.8203125 919.98828125 C-1456.69049694 921.53266869 -1453.57258433 921.842908 -1448.25 920.875 C-1445.2353628 905.05432617 -1442.74045003 889.20629 -1440.5625 873.25 C-1440.39625122 872.03988251 -1440.23000244 870.82976501 -1440.05871582 869.58297729 C-1434.11868577 826.1983203 -1428.71386906 782.66893822 -1424.6875 739.0625 C-1424.60705444 738.19335968 -1424.52660889 737.32421936 -1424.44372559 736.42874146 C-1422.77890434 722.96016103 -1422.77890434 722.96016103 -1424.5 709.6875 C-1424.73203125 708.86894531 -1424.9640625 708.05039062 -1425.203125 707.20703125 C-1426.82554604 703.59290677 -1428.72291311 701.55763832 -1432.39797974 699.91481018 C-1435.19252075 698.88959188 -1438.00357161 697.95820521 -1440.83984375 697.0546875 C-1441.90194565 696.70953094 -1442.96404755 696.36437439 -1444.05833435 696.00875854 C-1456.17500525 692.14685861 -1468.46539369 689.02559722 -1480.8125 686 C-1482.01500397 685.70262939 -1483.21750793 685.40525879 -1484.45645142 685.09887695 C-1561.41521505 666.08612327 -1638.65293784 654.43295897 -1718.12890625 655.92919922 Z M-1266.25 728.875 C-1263.66684593 740.36117935 -1260.71800896 751.66850506 -1257.3125 762.9375 C-1257.06689331 763.75426208 -1256.82128662 764.57102417 -1256.5682373 765.41253662 C-1245.39105869 802.47596298 -1233.04680994 839.23610363 -1220.375 875.8125 C-1220.05833374 876.73033264 -1219.74166748 877.64816528 -1219.41540527 878.59381104 C-1216.30450648 887.59037649 -1213.08839164 896.5386911 -1209.5546875 905.37890625 C-1209.14526413 906.4295652 -1209.14526413 906.4295652 -1208.72756958 907.50144958 C-1207.13365157 911.39537735 -1205.54659472 914.22236666 -1202.25 916.875 C-1192.6384239 920.0788587 -1180.64920946 917.57937143 -1170.8125 916.25 C-1170.15879425 916.16363281 -1169.5050885 916.07726562 -1168.83157349 915.98828125 C-1158.39084052 914.60106308 -1148.02995207 912.86251748 -1137.6875 910.875 C-1136.44750244 910.6382959 -1135.20750488 910.4015918 -1133.92993164 910.15771484 C-1130.356438 909.44701531 -1126.80248075 908.68409203 -1123.25 907.875 C-1122.29133026 907.65674561 -1122.29133026 907.65674561 -1121.31329346 907.43408203 C-1119.38115541 906.98130736 -1117.45793934 906.49098627 -1115.53515625 906 C-1114.40086182 905.71382812 -1113.26656738 905.42765625 -1112.09790039 905.1328125 C-1108.64997576 903.60999144 -1107.75779831 902.27801702 -1106.25 898.875 C-1103.24610551 869.90593532 -1118.29132158 833.63849559 -1125.25 805.875 C-1125.45963379 805.03753235 -1125.66926758 804.2000647 -1125.88525391 803.33721924 C-1131.77184019 767.89516068 -1131.77184019 767.89516068 -1148.25 737.875 C-1151.46949583 737.06730605 -1151.46949583 737.06730605 -1155.24975586 736.64819336 C-1155.95933945 736.55343216 -1156.66892303 736.45867096 -1157.40000916 736.36103821 C-1159.75352561 736.04995761 -1162.1089436 735.75727818 -1164.46484375 735.46484375 C-1166.11671652 735.25075382 -1167.76845338 735.03561291 -1169.4200592 734.81947327 C-1172.89522809 734.36728795 -1176.37131583 733.92338496 -1179.84838867 733.48608398 C-1184.24609207 732.93299397 -1188.64195709 732.36676233 -1193.03728962 731.79516697 C-1214.54545249 728.98811953 -1214.54545249 728.98811953 -1236.1015625 726.5859375 C-1236.8266954 726.51201279 -1237.55182831 726.43808807 -1238.29893494 726.36192322 C-1243.42417204 725.87539035 -1248.54306339 725.67683525 -1253.6875 725.5625 C-1254.37695206 725.54425674 -1255.06640411 725.52601349 -1255.77674866 725.50721741 C-1260.19352409 725.51731285 -1262.59635714 726.50871584 -1266.25 728.875 Z M-1343.25 837.875 C-1345.67748168 851.78310389 -1347.25762763 865.70072102 -1348.55761719 879.75610352 C-1348.87621346 883.2006194 -1349.20298506 886.64428392 -1349.53125 890.08789062 C-1351.63632431 910.97435503 -1351.63632431 910.97435503 -1352.4375 931.9375 C-1352.44974609 932.64326172 -1352.46199219 933.34902344 -1352.47460938 934.07617188 C-1352.48594869 938.10918742 -1352.21548251 941.31623599 -1350.25 944.875 C-1346.65868187 947.26921208 -1343.97213655 947.25970291 -1339.8125 947.25 C-1339.10109863 947.24838867 -1338.38969727 947.24677734 -1337.65673828 947.24511719 C-1328.5444024 947.0365782 -1318.88121438 944.50621438 -1312.25 937.875 C-1311.37587451 927.87781771 -1314.20321255 918.6534209 -1316.6875 909.0625 C-1316.91208893 908.18116394 -1317.13667786 907.29982788 -1317.36807251 906.39178467 C-1325.2471096 870.65840655 -1325.2471096 870.65840655 -1340.25 837.875 C-1341.24 837.875 -1342.23 837.875 -1343.25 837.875 Z M-2427.25 1125.875 C-2427.83942383 1126.15472656 -2428.42884766 1126.43445312 -2429.03613281 1126.72265625 C-2438.6886549 1131.36068558 -2447.00801318 1137.06937603 -2455.25 1143.875 C-2456.38501953 1144.79732422 -2456.38501953 1144.79732422 -2457.54296875 1145.73828125 C-2460.2348559 1147.97504522 -2462.29714881 1149.94572322 -2464.25 1152.875 C-2464.41713569 1155.50031524 -2464.41713569 1155.50031524 -2464.25 1157.875 C-2457.47410625 1155.88427209 -2450.79185181 1153.73551708 -2444.14868164 1151.34326172 C-2416.21115229 1141.31634541 -2387.78278755 1136.64650303 -2358.125 1136.625 C-2357.28607208 1136.62432526 -2356.44714417 1136.62365051 -2355.58279419 1136.62295532 C-2316.11933891 1136.67315671 -2275.25963547 1143.17350937 -2246.25 1171.875 C-2245.59644531 1172.46796875 -2244.94289063 1173.0609375 -2244.26953125 1173.671875 C-2226.00106629 1190.56079913 -2214.4730469 1219.32607836 -2213.0859375 1243.765625 C-2212.65175434 1255.40173366 -2212.83803677 1266.46683283 -2215.58203125 1277.81640625 C-2216.48323899 1281.94298905 -2216.47124585 1285.67132894 -2216.25 1289.875 C-2213.44325359 1290.68954529 -2211.85099266 1291.12724145 -2209.109375 1289.9765625 C-2197.30105501 1281.71073851 -2187.44421357 1271.32299914 -2184.25 1256.875 C-2180.18356644 1232.65542399 -2182.27023008 1208.4541586 -2196.05957031 1187.54052734 C-2199.6290542 1182.54647093 -2203.94651947 1178.22956042 -2208.25 1173.875 C-2208.87132813 1173.18148438 -2209.49265625 1172.48796875 -2210.1328125 1171.7734375 C-2245.78185623 1132.92717012 -2312.37698591 1119.94216827 -2362.36035156 1117.78387451 C-2384.08570821 1116.99867292 -2407.25056992 1116.20273155 -2427.25 1125.875 Z " fill="#000000" transform="translate(3267.25,44.125)"/>
</svg>
