<?xml version="1.0" encoding="UTF-8"?>
<svg version="1.1" xmlns="http://www.w3.org/2000/svg" width="200" height="200">
<path d="M0 0 C60.72 0 121.44 0 184 0 C184 7.59 184 15.18 184 23 C179.05 23 174.1 23 169 23 C169 60.62 169 98.24 169 137 C147.55 137 126.1 137 104 137 C104 141.95 104 146.9 104 152 C105.815 152.391875 107.63 152.78375 109.5 153.1875 C116.48505573 154.95231928 121.94860133 156.95398379 126.0625 163.0625 C127.04096087 166.12834406 127.2336876 167.10964618 126 170 C124.14453125 171.01171875 124.14453125 171.01171875 121.8125 171.6875 C120.67748047 172.03361328 120.67748047 172.03361328 119.51953125 172.38671875 C113.85645991 173.76517177 108.37230851 174.17059166 102.55859375 174.203125 C101.75446548 174.20882507 100.95033722 174.21452515 100.12184143 174.22039795 C98.42328185 174.22981059 96.72470431 174.236367 95.02612305 174.24023438 C92.46955054 174.24987909 89.9138041 174.28091231 87.35742188 174.3125 C63.97928517 174.46611825 63.97928517 174.46611825 58.15795898 169.39550781 C57.58476929 168.70473145 57.58476929 168.70473145 57 168 C58.28949992 162.95922757 59.90695795 160.24032495 64 157 C69.31916166 154.35373928 74.10678461 152.98220257 80 152 C80 147.05 80 142.1 80 137 C58.55 137 37.1 137 15 137 C15 99.38 15 61.76 15 23 C10.05 23 5.1 23 0 23 C0 15.41 0 7.82 0 0 Z M28 24 C28 57 28 90 28 124 C70.24 124 112.48 124 156 124 C156 91 156 58 156 24 C113.76 24 71.52 24 28 24 Z " fill="#000000" transform="translate(8,13)"/>
<path d="M0 0 C34.32 0 68.64 0 104 0 C104 4.62 104 9.24 104 14 C69.68 14 35.36 14 0 14 C0 9.38 0 4.76 0 0 Z " fill="#000000" transform="translate(48,104)"/>
<path d="M0 0 C12.54 0 25.08 0 38 0 C38 12.54 38 25.08 38 38 C25.46 38 12.92 38 0 38 C0 25.46 0 12.92 0 0 Z " fill="#000000" transform="translate(48,56)"/>
<path d="M0 0 C17.82 0 35.64 0 54 0 C54 4.62 54 9.24 54 14 C36.18 14 18.36 14 0 14 C0 9.38 0 4.76 0 0 Z " fill="#000000" transform="translate(98,80)"/>
<path d="M0 0 C17.82 0 35.64 0 54 0 C54 4.62 54 9.24 54 14 C36.18 14 18.36 14 0 14 C0 9.38 0 4.76 0 0 Z " fill="#000000" transform="translate(98,56)"/>
</svg>
