<svg version="1.1" xmlns="http://www.w3.org/2000/svg" width="1024px" height="684px" transform="rotate(0) scale(1, 1)">
<path d="M0 0 C1.36647335 1.29934835 2.70713106 2.62739465 4 4 C4.639375 4.28875 5.27875 4.5775 5.9375 4.875 C9.167098 6.63659891 10.82344417 9.03746567 13 12 C13 12.99 13 13.98 13 15 C13.66 15 14.32 15 15 15 C24.73828762 38.49480072 18.62837926 55.68517202 11.44702148 78.94287109 C9.74061101 84.48275254 8.20287037 90.01280093 6.875 95.65625 C5.29581319 101.69099959 3.38532745 107.62994257 1.546875 113.58984375 C0.07962769 118.37083181 -1.35403605 123.12965321 -2.5 128 C-4.1383514 134.96299343 -6.34573658 141.75810507 -8.453125 148.58984375 C-9.92037231 153.37083181 -11.35403605 158.12965321 -12.5 163 C-14.1383514 169.96299343 -16.34573658 176.75810507 -18.453125 183.58984375 C-19.92037231 188.37083181 -21.35403605 193.12965321 -22.5 198 C-24.1383514 204.96299343 -26.34573658 211.75810507 -28.453125 218.58984375 C-29.92037231 223.37083181 -31.35403605 228.12965321 -32.5 233 C-34.12325398 239.88622652 -36.29587632 246.60799928 -38.37841797 253.36572266 C-40.42529321 260.03513351 -42.3044192 266.71627893 -44.05859375 273.46875 C-45.03357842 277.12595392 -46.09928651 280.75047435 -47.1875 284.375 C-50.25170496 294.61098662 -53.00428111 304.93505269 -55.78979492 315.24951172 C-57.53728456 321.7102045 -59.31319678 328.15483831 -61.26708984 334.55688477 C-62.75471949 339.51581545 -64.11532688 344.51154881 -65.5 349.5 C-68.79103313 361.35634207 -68.79103313 361.35634207 -70.515625 367.05078125 C-72.18721958 372.57080223 -73.71451198 378.12838332 -75.25 383.6875 C-77.55129746 391.97572831 -79.95435719 400.22116894 -82.5 408.4375 C-84.97354004 416.43560028 -87.23728639 424.46836957 -89.375 432.5625 C-92.25680503 443.47166281 -95.44237376 454.27405759 -98.72290039 465.06811523 C-101.31342277 473.62101287 -103.73248434 482.20446932 -106.03662109 490.83837891 C-107.53974388 496.43280405 -109.24728824 501.91181749 -111.14453125 507.38671875 C-112.33494337 511.02318317 -113.20089521 514.71567094 -114.09765625 518.43359375 C-117.30696853 531.11801849 -121.13600672 543.66445608 -124.99536133 556.1640625 C-126.39056168 560.73804806 -127.56415621 565.2973639 -128.51879883 569.98413086 C-129.0036237 572.01518057 -129.66071066 573.87626778 -130.4375 575.8125 C-132.08741712 580.00328947 -133.1250939 584.27198473 -134.18359375 588.64453125 C-138.27253527 605.45027653 -138.27253527 605.45027653 -141.2890625 613.0078125 C-142.91016126 617.55045187 -143.8664888 622.31738821 -145 627 C-146.96093672 635.0115748 -149.15171404 642.8246415 -152 650.5625 C-152.2369458 651.21702148 -152.4738916 651.87154297 -152.71801758 652.54589844 C-156.80668165 663.31766221 -164.82580419 670.84224796 -175 676 C-181.00974298 678.6417159 -186.0152399 679.58098068 -192.5625 679.5625 C-193.86598389 679.55996216 -193.86598389 679.55996216 -195.19580078 679.55737305 C-206.3800362 679.25040716 -215.66082656 675.49695251 -224 668 C-225.80245015 666.02170106 -227.41388156 664.13340532 -229 662 C-229.65162109 661.13955078 -229.65162109 661.13955078 -230.31640625 660.26171875 C-236.65304289 651.12561279 -238.22505031 639.88544702 -237 629 C-234.80965327 617.47948716 -230.90088686 606.24289128 -227.44702148 595.05712891 C-225.74061101 589.51724746 -224.20287037 583.98719907 -222.875 578.34375 C-221.29581319 572.30900041 -219.38532745 566.37005743 -217.546875 560.41015625 C-216.07962769 555.62916819 -214.64596395 550.87034679 -213.5 546 C-211.8616486 539.03700657 -209.65426342 532.24189493 -207.546875 525.41015625 C-206.07962769 520.62916819 -204.64596395 515.87034679 -203.5 511 C-201.8616486 504.03700657 -199.65426342 497.24189493 -197.546875 490.41015625 C-196.07962769 485.62916819 -194.64596395 480.87034679 -193.5 476 C-192.10764935 470.08250974 -190.29099147 464.30615297 -188.5 458.5 C-186.41614506 451.74338794 -184.43021354 445.01621291 -182.8046875 438.1328125 C-181.45825953 432.89089389 -179.83614568 427.73102818 -178.26147461 422.55395508 C-176.74781883 417.55575221 -175.31711563 412.55353571 -174 407.5 C-172.2383359 400.7469543 -170.23920708 394.07956787 -168.2109375 387.40234375 C-166.71529267 382.4546298 -165.30472455 377.5014441 -164 372.5 C-162.2383359 365.7469543 -160.23920708 359.07956787 -158.2109375 352.40234375 C-156.71529267 347.4546298 -155.30472455 342.5014441 -154 337.5 C-152.56275737 331.99741395 -150.97644747 326.56159949 -149.3125 321.125 C-146.53580329 312.03066487 -144.03761863 302.86714047 -141.5625 293.6875 C-138.72580399 283.16897971 -135.75766133 272.71692697 -132.51928711 262.31347656 C-130.3827084 255.3971417 -128.47282982 248.43605658 -126.625 241.4375 C-123.74328241 230.52831634 -120.55762527 219.72593922 -117.27709961 208.93188477 C-114.68657723 200.37898713 -112.26751566 191.79553068 -109.96337891 183.16162109 C-108.46025612 177.56719595 -106.75271176 172.08818251 -104.85546875 166.61328125 C-103.66505663 162.97681683 -102.79910479 159.28432906 -101.90234375 155.56640625 C-98.69303147 142.88198151 -94.86399328 130.33554392 -91.00463867 117.8359375 C-89.60943832 113.26195194 -88.43584379 108.7026361 -87.48120117 104.01586914 C-86.9963763 101.98481943 -86.33928934 100.12373222 -85.5625 98.1875 C-83.91258288 93.99671053 -82.8749061 89.72801527 -81.81640625 85.35546875 C-77.72746473 68.54972347 -77.72746473 68.54972347 -74.7109375 60.9921875 C-73.08983874 56.44954813 -72.1335112 51.68261179 -71 47 C-69.03906328 38.9884252 -66.84828596 31.1753585 -64 23.4375 C-63.6445813 22.45571777 -63.6445813 22.45571777 -63.28198242 21.45410156 C-61.06244268 15.60662734 -58.21170839 10.65203914 -53.375 6.625 C-52.48941406 5.87089844 -52.48941406 5.87089844 -51.5859375 5.1015625 C-50 4 -50 4 -48 4 C-47.67 3.01 -47.34 2.02 -47 1 C-32.81482993 -7.40072752 -14.44452075 -8.35451733 0 0 Z " fill="#ffffff" transform="translate(620,5)"/>
<path d="M0 0 C3.15535591 3.01193064 5.48265027 5.91544363 7.75 9.625 C8.21921875 10.30175781 8.6884375 10.97851562 9.171875 11.67578125 C14.94128921 21.57778149 14.56132957 35.81615622 12.30029297 46.81201172 C9.78762724 55.29751635 3.36782774 62.9026539 -3.25 68.625 C-5.5546875 69.421875 -5.5546875 69.421875 -7.25 69.625 C-7.25 70.285 -7.25 70.945 -7.25 71.625 C-9.46814024 73.3538446 -11.68606469 74.97166947 -14 76.5625 C-15.26585609 77.44628368 -16.53148687 78.33039017 -17.796875 79.21484375 C-18.39693359 79.62976074 -18.99699219 80.04467773 -19.61523438 80.47216797 C-20.96417212 81.423435 -22.27673545 82.42606038 -23.578125 83.44140625 C-25.25 84.625 -25.25 84.625 -27.25 84.625 C-27.58 85.615 -27.91 86.605 -28.25 87.625 C-29.55357304 88.55122295 -30.86865224 89.46403981 -32.2265625 90.30859375 C-35.89728649 92.69669024 -39.3548495 95.39201848 -42.859375 98.015625 C-45.25 99.625 -45.25 99.625 -47.25 99.625 C-47.58 100.615 -47.91 101.605 -48.25 102.625 C-49.55357304 103.55122295 -50.86865224 104.46403981 -52.2265625 105.30859375 C-55.89728649 107.69669024 -59.3548495 110.39201848 -62.859375 113.015625 C-65.25 114.625 -65.25 114.625 -67.25 114.625 C-67.58 115.615 -67.91 116.605 -68.25 117.625 C-69.55357304 118.55122295 -70.86865224 119.46403981 -72.2265625 120.30859375 C-75.89728649 122.69669024 -79.3548495 125.39201848 -82.859375 128.015625 C-85.25 129.625 -85.25 129.625 -87.25 129.625 C-87.58 130.615 -87.91 131.605 -88.25 132.625 C-90.21311076 134.01207388 -92.22042241 135.33713643 -94.25 136.625 C-96.32532568 138.1914846 -98.38738852 139.77565838 -100.4375 141.375 C-105.39712468 145.22351002 -110.42192664 148.961167 -115.51171875 152.63671875 C-119.41852594 155.47347319 -123.28362725 158.36296064 -127.1328125 161.27734375 C-129.28181917 162.89583123 -131.43813445 164.49000343 -133.6171875 166.06640625 C-145.05470489 174.4352813 -153.10515697 183.13817398 -155.77734375 197.44921875 C-157.14585464 208.47418849 -153.99020059 219.53314525 -147.6875 228.6875 C-141.54316532 236.36019933 -132.96292894 241.92744241 -125.04296875 247.61328125 C-118.57910639 252.26907022 -112.23897805 257.09300496 -105.921875 261.9453125 C-105.16986816 262.5225708 -104.41786133 263.0998291 -103.64306641 263.69458008 C-102.16476275 264.83059835 -100.68780615 265.96837238 -99.21240234 267.1081543 C-96.11712888 269.48793193 -93.04059341 271.79502314 -89.7421875 273.88671875 C-88.91976562 274.46035156 -88.09734375 275.03398437 -87.25 275.625 C-87.25 276.285 -87.25 276.945 -87.25 277.625 C-86.20199219 277.98078125 -86.20199219 277.98078125 -85.1328125 278.34375 C-81.71522382 279.8626783 -79.08369808 281.84109271 -76.125 284.125 C-73.20001012 286.37162565 -70.31902312 288.57898459 -67.25 290.625 C-67.25 291.285 -67.25 291.945 -67.25 292.625 C-66.20199219 292.98078125 -66.20199219 292.98078125 -65.1328125 293.34375 C-61.71522382 294.8626783 -59.08369808 296.84109271 -56.125 299.125 C-53.20001012 301.37162565 -50.31902312 303.57898459 -47.25 305.625 C-47.25 306.285 -47.25 306.945 -47.25 307.625 C-46.20199219 307.98078125 -46.20199219 307.98078125 -45.1328125 308.34375 C-41.71522382 309.8626783 -39.08369808 311.84109271 -36.125 314.125 C-33.20001012 316.37162565 -30.31902312 318.57898459 -27.25 320.625 C-27.25 321.285 -27.25 321.945 -27.25 322.625 C-26.21939453 322.96337891 -26.21939453 322.96337891 -25.16796875 323.30859375 C-21.51185383 324.9580057 -18.67882223 327.19232467 -15.5625 329.6875 C-11.60070369 332.95058304 -11.60070369 332.95058304 -7.25 335.625 C-7.25 336.285 -7.25 336.945 -7.25 337.625 C-6.528125 337.85445313 -5.80625 338.08390625 -5.0625 338.3203125 C1.80824483 341.50757469 7.44697947 349.20131755 10.875 355.8125 C14.85446166 366.76317686 15.31313362 382.33005185 10.43066406 393.04931641 C4.66753909 403.96780762 -3.66001111 412.01946154 -15.265625 416.3828125 C-27.85101292 419.79335655 -41.68436021 418.46029347 -53 412.125 C-59.25471585 408.17880703 -64.95259407 403.47696212 -70.7109375 398.85253906 C-73.16196162 396.89762959 -75.66929989 395.02319146 -78.1875 393.15625 C-79.86022959 391.914375 -81.5250874 390.66190207 -83.1875 389.40625 C-84.239375 388.6121875 -85.29125 387.818125 -86.375 387 C-87.34695312 386.26523437 -88.31890625 385.53046875 -89.3203125 384.7734375 C-91.36945178 383.27073536 -93.47501531 381.8433777 -95.6171875 380.4765625 C-96.48601562 379.86554688 -97.35484375 379.25453125 -98.25 378.625 C-98.25 377.965 -98.25 377.305 -98.25 376.625 C-99.3328125 376.25181641 -99.3328125 376.25181641 -100.4375 375.87109375 C-103.5189507 374.5058399 -105.67267997 372.85003259 -108.25 370.6875 C-110.80191029 368.55426249 -113.18082066 366.66506637 -116.0625 364.99609375 C-117.1453125 364.31740234 -117.1453125 364.31740234 -118.25 363.625 C-118.25 362.965 -118.25 362.305 -118.25 361.625 C-119.3328125 361.25181641 -119.3328125 361.25181641 -120.4375 360.87109375 C-123.5189507 359.5058399 -125.67267997 357.85003259 -128.25 355.6875 C-130.80191029 353.55426249 -133.18082066 351.66506637 -136.0625 349.99609375 C-137.1453125 349.31740234 -137.1453125 349.31740234 -138.25 348.625 C-138.25 347.965 -138.25 347.305 -138.25 346.625 C-139.3328125 346.25181641 -139.3328125 346.25181641 -140.4375 345.87109375 C-143.5189507 344.5058399 -145.67267997 342.85003259 -148.25 340.6875 C-150.80191029 338.55426249 -153.18082066 336.66506637 -156.0625 334.99609375 C-157.1453125 334.31740234 -157.1453125 334.31740234 -158.25 333.625 C-158.25 332.965 -158.25 332.305 -158.25 331.625 C-159.28060547 331.28662109 -159.28060547 331.28662109 -160.33203125 330.94140625 C-163.98814617 329.2919943 -166.82117777 327.05767533 -169.9375 324.5625 C-173.89929631 321.29941696 -173.89929631 321.29941696 -178.25 318.625 C-178.25 317.965 -178.25 317.305 -178.25 316.625 C-178.91 316.42648437 -179.57 316.22796875 -180.25 316.0234375 C-184.45784783 314.06196677 -187.70641751 311.21824068 -191.25 308.25 C-192.64578143 307.09629137 -194.04161358 305.9426441 -195.4375 304.7890625 C-196.09105469 304.24282227 -196.74460938 303.69658203 -197.41796875 303.13378906 C-198.99934885 301.83142645 -200.62132623 300.57864951 -202.25 299.3359375 C-202.91 298.77132813 -203.57 298.20671875 -204.25 297.625 C-204.25 296.965 -204.25 296.305 -204.25 295.625 C-205.178125 295.25375 -205.178125 295.25375 -206.125 294.875 C-208.63710296 293.39729238 -209.01107344 292.18544823 -210.25 289.625 C-211.24 289.295 -212.23 288.965 -213.25 288.625 C-216.18839829 285.16280028 -218.68684182 281.37042671 -221.25 277.625 C-221.86617187 276.7278125 -222.48234375 275.830625 -223.1171875 274.90625 C-241.98409121 246.39626217 -248.17213789 211.00728981 -242.140625 177.47265625 C-238.14069862 159.11224585 -229.86484497 136.89823188 -216.125 123.5625 C-214.19625657 121.77171641 -214.19625657 121.77171641 -213.3125 119.6875 C-211.81324754 116.77718639 -209.62193465 114.82186328 -207.25 112.625 C-206.28320312 111.70267578 -206.28320312 111.70267578 -205.296875 110.76171875 C-199.85711828 105.70126479 -194.13345174 101.09431457 -188.25 96.5625 C-187.49557617 95.97791016 -186.74115234 95.39332031 -185.96386719 94.79101562 C-185.25391602 94.25025391 -184.54396484 93.70949219 -183.8125 93.15234375 C-183.17441406 92.66499756 -182.53632813 92.17765137 -181.87890625 91.67553711 C-180.25 90.625 -180.25 90.625 -178.25 90.625 C-178.25 89.965 -178.25 89.305 -178.25 88.625 C-176.84345313 87.63957495 -175.42937579 86.66307556 -173.97851562 85.74414062 C-170.10042821 83.23324335 -166.51570087 80.27267978 -162.859375 77.453125 C-160.25 75.625 -160.25 75.625 -158.25 75.625 C-158.25 74.965 -158.25 74.305 -158.25 73.625 C-156.84345313 72.63957495 -155.42937579 71.66307556 -153.97851562 70.74414062 C-150.10042821 68.23324335 -146.51570087 65.27267978 -142.859375 62.453125 C-140.25 60.625 -140.25 60.625 -138.25 60.625 C-138.25 59.965 -138.25 59.305 -138.25 58.625 C-136.84345313 57.63957495 -135.42937579 56.66307556 -133.97851562 55.74414062 C-130.10042821 53.23324335 -126.51570087 50.27267978 -122.859375 47.453125 C-120.25 45.625 -120.25 45.625 -118.25 45.625 C-117.92 44.635 -117.59 43.645 -117.25 42.625 C-115.61265082 41.57768656 -113.93884998 40.58706212 -112.25 39.625 C-110.1231228 38.04277766 -108.02349431 36.44633946 -105.9375 34.8125 C-104.77630621 33.91111743 -103.61484901 33.0100741 -102.453125 32.109375 C-101.89818359 31.67818359 -101.34324219 31.24699219 -100.77148438 30.80273438 C-97.62812026 28.36955265 -94.43644738 26.00123116 -91.25 23.625 C-89.41633483 22.25044255 -87.58303804 20.87539364 -85.75 19.5 C-67.109375 5.51953125 -67.109375 5.51953125 -65.19946289 4.08935547 C-63.84421869 3.07135238 -62.492059 2.04923525 -61.14233398 1.02392578 C-42.21184525 -13.31648631 -19.45273354 -15.08579336 0 0 Z " fill="#ffffff" transform="translate(243.25,138.375)"/>
<path d="M0 0 C1.81047198 1.43220087 3.6129221 2.87401978 5.41430664 4.31762695 C8.42000068 6.71869395 11.49459374 9.00117442 14.62133789 11.2434082 C19.03926762 14.41208534 23.28448233 17.74514744 27.48461914 21.1965332 C29.90915862 23.13252462 29.90915862 23.13252462 32.76586914 24.9855957 C36.03807125 27.16706377 39.1475724 29.51426965 42.24633789 31.9309082 C43.39841516 32.82317946 44.55075776 33.71510825 45.70336914 34.60668945 C46.25202637 35.03159668 46.80068359 35.45650391 47.3659668 35.89428711 C49.81618805 37.78500277 52.29214487 39.64020385 54.77368164 41.48950195 C56.45756327 42.74692566 58.13604621 44.01157757 59.81274414 45.27856445 C60.86333008 46.07133789 61.91391602 46.86411133 62.99633789 47.6809082 C64.45426758 48.78305664 64.45426758 48.78305664 65.94165039 49.9074707 C67.99078967 51.41017284 70.0963532 52.8375305 72.23852539 54.2043457 C73.10735352 54.81536133 73.97618164 55.42637695 74.87133789 56.0559082 C74.87133789 56.7159082 74.87133789 57.3759082 74.87133789 58.0559082 C75.59321289 58.30469727 76.31508789 58.55348633 77.05883789 58.80981445 C80.14028859 60.1750683 82.29401786 61.83087561 84.87133789 63.9934082 C87.42324818 66.12664571 89.80215855 68.01584184 92.68383789 69.68481445 C93.40571289 70.13727539 94.12758789 70.58973633 94.87133789 71.0559082 C94.87133789 71.7159082 94.87133789 72.3759082 94.87133789 73.0559082 C95.59321289 73.30469727 96.31508789 73.55348633 97.05883789 73.80981445 C100.14028859 75.1750683 102.29401786 76.83087561 104.87133789 78.9934082 C107.42324818 81.12664571 109.80215855 83.01584184 112.68383789 84.68481445 C113.40571289 85.13727539 114.12758789 85.58973633 114.87133789 86.0559082 C114.87133789 86.7159082 114.87133789 87.3759082 114.87133789 88.0559082 C115.53133789 88.25571289 116.19133789 88.45551758 116.87133789 88.66137695 C121.06887409 90.61257542 124.32658696 93.42207925 127.87133789 96.3684082 C128.57000977 96.9375293 129.26868164 97.50665039 129.98852539 98.09301758 C133.81932532 101.24077866 137.42973961 104.47739281 140.87133789 108.0559082 C144.3079679 111.58595235 144.3079679 111.58595235 148.12133789 114.6809082 C149.87133789 116.0559082 149.87133789 116.0559082 150.87133789 119.0559082 C151.42821289 119.5921582 151.98508789 120.1284082 152.55883789 120.6809082 C155.8924023 124.10456894 158.27885084 128.05827912 160.87133789 132.0559082 C161.55196289 133.0252832 162.23258789 133.9946582 162.93383789 134.9934082 C180.26135293 162.38206101 184.6975014 198.22811763 178.01879883 229.70092773 C175.61751413 239.5474093 172.48779856 249.01374971 167.87133789 258.0559082 C167.4962207 258.81774414 167.12110352 259.57958008 166.73461914 260.36450195 C164.06558054 265.46845296 160.84735454 270.24918931 157.68383789 275.0559082 C157.24330078 275.72807373 156.80276367 276.40023926 156.34887695 277.09277344 C153.11144753 281.93585338 153.11144753 281.93585338 150.87133789 283.0559082 C150.5787207 283.66563477 150.28610352 284.27536133 149.98461914 284.90356445 C148.68353864 287.41898676 147.23293973 288.69343479 145.05883789 290.4934082 C142.75719144 292.4121889 140.59101881 294.33805645 138.47680664 296.46606445 C120.78084015 314.0559082 120.78084015 314.0559082 114.87133789 314.0559082 C114.87133789 314.7159082 114.87133789 315.3759082 114.87133789 316.0559082 C113.46479103 317.04133325 112.05071368 318.01783265 110.59985352 318.93676758 C106.7217661 321.44766486 103.13703876 324.40822843 99.48071289 327.2277832 C96.87133789 329.0559082 96.87133789 329.0559082 94.87133789 329.0559082 C94.87133789 329.7159082 94.87133789 330.3759082 94.87133789 331.0559082 C93.46479103 332.04133325 92.05071368 333.01783265 90.59985352 333.93676758 C86.7217661 336.44766486 83.13703876 339.40822843 79.48071289 342.2277832 C76.87133789 344.0559082 76.87133789 344.0559082 74.87133789 344.0559082 C74.87133789 344.7159082 74.87133789 345.3759082 74.87133789 346.0559082 C73.46479103 347.04133325 72.05071368 348.01783265 70.59985352 348.93676758 C66.7217661 351.44766486 63.13703876 354.40822843 59.48071289 357.2277832 C56.87133789 359.0559082 56.87133789 359.0559082 54.87133789 359.0559082 C54.54133789 360.0459082 54.21133789 361.0359082 53.87133789 362.0559082 C52.23398871 363.10322164 50.56018787 364.09384608 48.87133789 365.0559082 C46.74445852 366.63813217 44.64480193 368.23452589 42.55883789 369.8684082 C41.39635932 370.77111502 40.23360019 371.67346067 39.07055664 372.57543945 C38.5154541 373.00679199 37.96035156 373.43814453 37.38842773 373.88256836 C35.56399879 375.29360884 33.72165188 376.6790221 31.87133789 378.0559082 C28.97270342 380.21615368 26.10584349 382.41501035 23.24609375 384.62646484 C17.76977165 388.86029337 12.24601532 393.00637669 6.62524414 397.0480957 C3.62830279 399.23309975 0.69046487 401.48785707 -2.25366211 403.7434082 C-14.72504524 413.0888891 -25.59073178 416.37836825 -41.12866211 415.0559082 C-46.48508886 414.08486008 -51.31318934 412.59618054 -56.12866211 410.0559082 C-56.12866211 409.3959082 -56.12866211 408.7359082 -56.12866211 408.0559082 C-56.93303711 407.9630957 -56.93303711 407.9630957 -57.75366211 407.8684082 C-66.05262159 405.02929049 -70.55342871 396.37865602 -74.26928711 388.9934082 C-76.65903639 383.47685226 -76.81863622 378.25480596 -76.75366211 372.3059082 C-76.73891846 370.714198 -76.73891846 370.714198 -76.72387695 369.09033203 C-76.32967191 355.89659236 -71.30273767 347.59556598 -62.49584961 338.1027832 C-60.2335187 336.14657628 -59.0486651 335.40577031 -56.12866211 335.0559082 C-56.12866211 334.3959082 -56.12866211 333.7359082 -56.12866211 333.0559082 C-53.91052187 331.3270636 -51.69259742 329.70923873 -49.37866211 328.1184082 C-48.11280601 327.23462453 -46.84717524 326.35051803 -45.58178711 325.46606445 C-44.98172852 325.05114746 -44.38166992 324.63623047 -43.76342773 324.20874023 C-42.41448999 323.2574732 -41.10192666 322.25484783 -39.80053711 321.23950195 C-38.12866211 320.0559082 -38.12866211 320.0559082 -36.12866211 320.0559082 C-36.12866211 319.3959082 -36.12866211 318.7359082 -36.12866211 318.0559082 C-33.91052187 316.3270636 -31.69259742 314.70923873 -29.37866211 313.1184082 C-28.11280601 312.23462453 -26.84717524 311.35051803 -25.58178711 310.46606445 C-24.98172852 310.05114746 -24.38166992 309.63623047 -23.76342773 309.20874023 C-22.41448999 308.2574732 -21.10192666 307.25484783 -19.80053711 306.23950195 C-18.12866211 305.0559082 -18.12866211 305.0559082 -16.12866211 305.0559082 C-15.79866211 304.0659082 -15.46866211 303.0759082 -15.12866211 302.0559082 C-13.82508907 301.12968525 -12.51000987 300.2168684 -11.15209961 299.37231445 C-7.48137562 296.98421796 -4.0238126 294.28888972 -0.51928711 291.6652832 C1.87133789 290.0559082 1.87133789 290.0559082 3.87133789 290.0559082 C4.20133789 289.0659082 4.53133789 288.0759082 4.87133789 287.0559082 C6.17491093 286.12968525 7.48999013 285.2168684 8.84790039 284.37231445 C12.51862438 281.98421796 15.9761874 279.28888972 19.48071289 276.6652832 C21.87133789 275.0559082 21.87133789 275.0559082 23.87133789 275.0559082 C24.20133789 274.0659082 24.53133789 273.0759082 24.87133789 272.0559082 C26.17491093 271.12968525 27.48999013 270.2168684 28.84790039 269.37231445 C32.51862438 266.98421796 35.9761874 264.28888972 39.48071289 261.6652832 C41.87133789 260.0559082 41.87133789 260.0559082 43.87133789 260.0559082 C44.20133789 259.0659082 44.53133789 258.0759082 44.87133789 257.0559082 C46.83444865 255.66883433 48.8417603 254.34377177 50.87133789 253.0559082 C52.94666358 251.4894236 55.00872641 249.90524983 57.05883789 248.3059082 C73.58982936 235.49540406 73.58982936 235.49540406 78.87133789 233.0559082 C78.87133789 232.3959082 78.87133789 231.7359082 78.87133789 231.0559082 C80.51501929 229.36656898 82.18562549 227.70330896 83.87133789 226.0559082 C89.99952044 219.92772566 92.40121671 210.1022891 92.97290039 201.62231445 C92.46640217 188.82349409 86.93975051 177.80817433 77.87133789 169.0559082 C75.31102829 166.88828412 72.62585285 164.96780767 69.87133789 163.0559082 C68.11896473 161.78834926 66.36913527 160.51726914 64.62133789 159.2434082 C63.20981445 158.21860352 63.20981445 158.21860352 61.76977539 157.1730957 C55.29705121 152.44504111 48.89982709 147.61825264 42.54321289 142.7355957 C41.79120605 142.1583374 41.03919922 141.5810791 40.2644043 140.98632812 C38.78610064 139.85030985 37.30914404 138.71253583 35.83374023 137.57275391 C32.73846677 135.19297627 29.6619313 132.88588506 26.36352539 130.79418945 C25.54110352 130.22055664 24.71868164 129.64692383 23.87133789 129.0559082 C23.87133789 128.3959082 23.87133789 127.7359082 23.87133789 127.0559082 C22.82333008 126.70012695 22.82333008 126.70012695 21.75415039 126.3371582 C18.33656171 124.8182299 15.70503597 122.83981549 12.74633789 120.5559082 C9.82134801 118.30928256 6.94036101 116.10192361 3.87133789 114.0559082 C3.87133789 113.3959082 3.87133789 112.7359082 3.87133789 112.0559082 C3.17266602 111.8187207 2.47399414 111.5815332 1.75415039 111.3371582 C-1.66343829 109.8182299 -4.29496403 107.83981549 -7.25366211 105.5559082 C-10.17865199 103.30928256 -13.05963899 101.10192361 -16.12866211 99.0559082 C-16.12866211 98.3959082 -16.12866211 97.7359082 -16.12866211 97.0559082 C-16.81573242 96.83032227 -17.50280273 96.60473633 -18.21069336 96.37231445 C-21.86680828 94.7229025 -24.69983988 92.48858353 -27.81616211 89.9934082 C-31.77795842 86.73032516 -31.77795842 86.73032516 -36.12866211 84.0559082 C-36.12866211 83.3959082 -36.12866211 82.7359082 -36.12866211 82.0559082 C-36.81573242 81.83032227 -37.50280273 81.60473633 -38.21069336 81.37231445 C-41.86680828 79.7229025 -44.69983988 77.48858353 -47.81616211 74.9934082 C-51.77795842 71.73032516 -51.77795842 71.73032516 -56.12866211 69.0559082 C-56.12866211 68.3959082 -56.12866211 67.7359082 -56.12866211 67.0559082 C-56.85053711 66.82645508 -57.57241211 66.59700195 -58.31616211 66.3605957 C-65.18690694 63.17333352 -70.82564158 55.47959065 -74.25366211 48.8684082 C-78.23312377 37.91773134 -78.69179573 22.35085635 -73.80932617 11.6315918 C-67.28613145 -0.72688467 -58.42326914 -7.63584184 -45.44116211 -12.2565918 C-27.80095607 -15.97031938 -13.66296767 -10.68222957 0 0 Z " fill="#ffffff" transform="translate(844.128662109375,140.944091796875)"/>
</svg>