<svg version="1.1" xmlns="http://www.w3.org/2000/svg" width="870px" height="345px" transform="rotate(0) scale(1, 1)">
<path d="M0 0 C13.53 0 27.06 0 41 0 C45.5 11.25 45.5 11.25 46.75 16.625 C46.99234375 17.64851563 47.2346875 18.67203125 47.484375 19.7265625 C47.65453125 20.47679688 47.8246875 21.22703125 48 22 C48.66 22 49.32 22 50 22 C50.495 25.465 50.495 25.465 51 29 C51.66 29 52.32 29 53 29 C54.28734407 32.93088838 55.56892842 36.86360274 56.84521484 40.7980957 C57.28015954 42.13617501 57.71667209 43.47374574 58.15478516 44.81079102 C58.78440139 46.73319069 59.40790843 48.65758784 60.03125 50.58203125 C60.40830078 51.73936768 60.78535156 52.8967041 61.17382812 54.08911133 C62 57 62 57 62 60 C62.66 60 63.32 60 64 60 C64.83887056 62.43572059 65.67126529 64.87333217 66.5 67.3125 C66.85771484 68.34793945 66.85771484 68.34793945 67.22265625 69.40429688 C68.23208263 72.38931489 69 74.82658914 69 78 C69.66 78 70.32 78 71 78 C72.00990692 80.91333079 73.00615952 83.83115319 74 86.75 C74.28617187 87.575 74.57234375 88.4 74.8671875 89.25 C75.27324219 90.44882813 75.27324219 90.44882813 75.6875 91.671875 C75.93886719 92.4050293 76.19023437 93.13818359 76.44921875 93.89355469 C77 96 77 96 77 100 C77.66 100 78.32 100 79 100 C80.34065238 103.93504649 81.67126071 107.87341646 83 111.8125 C83.3815625 112.93205078 83.763125 114.05160156 84.15625 115.20507812 C84.5171875 116.27822266 84.878125 117.35136719 85.25 118.45703125 C85.58515625 119.44678955 85.9203125 120.43654785 86.265625 121.45629883 C87 124 87 124 87 127 C87.66 127 88.32 127 89 127 C89 127.66 89 128.32 89 129 C76.46 129 63.92 129 51 129 C50.67 127.02 50.34 125.04 50 123 C49.34 123 48.68 123 48 123 C47.16169027 120.23058394 46.32917966 117.45964931 45.5 114.6875 C45.14228516 113.50897461 45.14228516 113.50897461 44.77734375 112.30664062 C44.55175781 111.54931641 44.32617188 110.79199219 44.09375 110.01171875 C43.88427734 109.31522217 43.67480469 108.61872559 43.45898438 107.90112305 C43 106 43 106 43 103 C27.16 103 11.32 103 -5 103 C-5.66 105.97 -6.32 108.94 -7 112 C-7.64351377 114.67336275 -8.32166947 117.33513006 -9 120 C-9.66 120 -10.32 120 -11 120 C-11.66 122.97 -12.32 125.94 -13 129 C-24.22 129 -35.44 129 -47 129 C-45.875 121.125 -45.875 121.125 -44.58984375 117.16015625 C-44.18862305 115.9081543 -44.18862305 115.9081543 -43.77929688 114.63085938 C-43.50150391 113.78330078 -43.22371094 112.93574219 -42.9375 112.0625 C-42.65583984 111.18787109 -42.37417969 110.31324219 -42.08398438 109.41210938 C-41.39434445 107.27305673 -40.69959171 105.13581421 -40 103 C-39.34 103 -38.68 103 -38 103 C-38 102.01 -38 101.02 -38 100 C-37.34 100 -36.68 100 -36 100 C-35.87689453 98.97801514 -35.75378906 97.95603027 -35.62695312 96.90307617 C-35.04002234 93.24915775 -34.16339853 90.04544424 -32.96875 86.55078125 C-32.57042969 85.37322266 -32.17210937 84.19566406 -31.76171875 82.98242188 C-31.34535156 81.77134766 -30.92898437 80.56027344 -30.5 79.3125 C-29.67584695 76.89234777 -28.85287799 74.47179189 -28.03125 72.05078125 C-27.66580078 70.98512939 -27.30035156 69.91947754 -26.92382812 68.8215332 C-26.18172418 66.55501755 -25.53415079 64.32222753 -25 62 C-24.34 62 -23.68 62 -23 62 C-22.86722656 61.38511719 -22.73445313 60.77023438 -22.59765625 60.13671875 C-22.33275391 58.92435547 -22.33275391 58.92435547 -22.0625 57.6875 C-21.80146484 56.48673828 -21.80146484 56.48673828 -21.53515625 55.26171875 C-21 53 -21 53 -20 50 C-19.34 50 -18.68 50 -18 50 C-17.89816406 49.22398438 -17.79632813 48.44796875 -17.69140625 47.6484375 C-16.78371914 42.85872136 -15.36878038 38.28081228 -13.9375 33.625 C-13.65583984 32.69816406 -13.37417969 31.77132812 -13.08398438 30.81640625 C-12.39265778 28.54323066 -11.69791205 26.27116062 -11 24 C-10.34 24 -9.68 24 -9 24 C-8.81824219 23.32195312 -8.63648438 22.64390625 -8.44921875 21.9453125 C-6.73474241 15.59735393 -4.92317349 9.28782256 -3 3 C-2.34 3 -1.68 3 -1 3 C-0.67 2.01 -0.34 1.02 0 0 Z M20 29 C20 30.32 20 31.64 20 33 C19.34 33 18.68 33 18 33 C17.67 34.98 17.34 36.96 17 39 C16.34 39 15.68 39 15 39 C13.71338638 43.64344329 12.43177472 48.28822694 11.15478516 52.93432617 C10.71963618 54.51478337 10.28312112 56.0948651 9.84521484 57.67456055 C9.21613055 59.94482733 8.59196631 62.21639764 7.96875 64.48828125 C7.77188599 65.19463211 7.57502197 65.90098297 7.37219238 66.6287384 C6.58448914 69.51599307 6 71.99141591 6 75 C5.34 75 4.68 75 4 75 C4 75.66 4 76.32 4 77 C13.57 77 23.14 77 33 77 C32.3734699 71.98775921 31.86684609 67.97392654 30.51171875 63.27734375 C30.21918213 62.2505249 29.92664551 61.22370605 29.62524414 60.16577148 C29.31578857 59.10044189 29.00633301 58.0351123 28.6875 56.9375 C28.05397766 54.71895258 27.42116341 52.50020283 26.7890625 50.28125 C26.48258789 49.21003906 26.17611328 48.13882813 25.86035156 47.03515625 C24.72027414 43.01318052 23.62979778 38.97931685 22.5625 34.9375 C22.25441406 33.77089844 21.94632813 32.60429688 21.62890625 31.40234375 C21.42136719 30.60957031 21.21382812 29.81679687 21 29 C20.67 29 20.34 29 20 29 Z " fill="#ffffff" transform="translate(261,54)"/>
<path d="M0 0 C31.68 0 63.36 0 96 0 C96 8.25 96 16.5 96 25 C76.53 25 57.06 25 37 25 C37 33.25 37 41.5 37 50 C54.49 50 71.98 50 90 50 C90 58.91 90 67.82 90 77 C72.51 77 55.02 77 37 77 C37 85.58 37 94.16 37 103 C56.8 103 76.6 103 97 103 C97 111.58 97 120.16 97 129 C64.99 129 32.98 129 0 129 C0 86.43 0 43.86 0 0 Z " fill="#ffffff" transform="translate(627,54)"/>
<path d="M0 0 C9.9 0 19.8 0 30 0 C32.475 2.475 32.475 2.475 35 5 C35.825 5.763125 36.65 6.52625 37.5 7.3125 C40.07356554 10.07908296 41.81982159 12.86139413 43.74609375 16.0859375 C45.48919749 18.74675006 47.72799691 20.7862534 50 23 C51.35162508 24.98768394 52.68693567 26.9866347 54 29 C55.41666667 30.58333333 55.41666667 30.58333333 57 32 C60.82677837 35.61851832 63.86690802 39.35978332 66.8125 43.6875 C67.21919922 44.26822266 67.62589844 44.84894531 68.04492188 45.44726562 C71 49.74330357 71 49.74330357 71 52 C71.70769531 52.16628906 72.41539062 52.33257812 73.14453125 52.50390625 C77.32785123 54.69571412 79.1654218 58.03599944 81.6875 61.9375 C82.17283203 62.66646484 82.65816406 63.39542969 83.15820312 64.14648438 C84.45009008 66.0905515 85.72633911 68.04397281 87 70 C88.66100122 73.03354162 88.66100122 73.03354162 90.9375 73.95703125 C93.38349089 75.19392437 94.40199904 76.4772215 96 78.6875 C96.51820313 79.40164062 97.03640625 80.11578125 97.5703125 80.8515625 C98.81302828 82.71903158 99.85570638 84.56901425 100.875 86.5625 C102.45673416 89.48870819 104.29599377 91.22194192 106.875 93.3125 C111.56031508 97.15708565 114.09895368 101.76004783 117 107 C117.33 107.33 117.66 107.66 118 108 C118.08700342 109.63472882 118.10701063 111.27314055 118.09765625 112.91015625 C118.09282227 114.39418945 118.09282227 114.39418945 118.08789062 115.90820312 C118.07532227 117.46958008 118.07532227 117.46958008 118.0625 119.0625 C118.05798828 120.10728516 118.05347656 121.15207031 118.04882812 122.22851562 C118.03699913 124.8190666 118.02051689 127.40950559 118 130 C114.01763976 130.27420913 110.03899406 130.47247272 106.04931641 130.60424805 C104.03482031 130.68608545 102.02295083 130.82595153 100.01171875 130.96679688 C90.38506975 131.23286004 90.38506975 131.23286004 86.37182617 127.66064453 C84.3161512 124.8552142 82.61853274 122.07502595 81 119 C78.00296295 113.93703456 76.18321991 110.98035145 71 108 C67.26116081 103.6085232 63.82321277 98.46963832 62 93 C61.4225 92.71125 60.845 92.4225 60.25 92.125 C54.91536482 89.45768241 52.48751783 85.20117364 50 80 C49.01834406 78.98198643 48.02408568 77.9753197 47 77 C47 76.34 47 75.68 47 75 C46.09507812 74.62875 46.09507812 74.62875 45.171875 74.25 C42.64277047 72.79440027 41.73227493 71.48875791 40.25 69 C39.82203125 68.29875 39.3940625 67.5975 38.953125 66.875 C38 65 38 65 38 63 C37.34 63 36.68 63 36 63 C35.67 85.11 35.34 107.22 35 130 C23.45 130 11.9 130 0 130 C0 87.1 0 44.2 0 0 Z " fill="#ffffff" transform="translate(366,53)"/>
<path d="M0 0 C4.29 0 8.58 0 13 0 C13 0.66 13 1.32 13 2 C14.0209375 1.94779297 14.0209375 1.94779297 15.0625 1.89453125 C21.38287316 1.71803147 27.30544008 2.21209924 33.5 3.375 C34.18191406 3.50108643 34.86382812 3.62717285 35.56640625 3.75708008 C39.11593066 4.46407407 41.71817061 5.35908531 45 7 C44.01 16.57 43.02 26.14 42 36 C40.35 35.67 38.7 35.34 37 35 C37 34.34 37 33.68 37 33 C33.7 32.34 30.4 31.68 27 31 C27 30.34 27 29.68 27 29 C15.06118081 27.58352993 2.91979401 27.29717228 -9 29 C-9.495 30.485 -9.495 30.485 -10 32 C-10.66 32 -11.32 32 -12 32 C-13.37874316 39.26086994 -13.37874316 39.26086994 -11 46 C-7.75572026 47.43691282 -4.45203565 48.22231288 -1 49 C-0.01 49.33 0.98 49.66 2 50 C2 50.66 2 51.32 2 52 C2.64324219 52.09796875 3.28648438 52.1959375 3.94921875 52.296875 C11.53083396 53.55146468 18.70285865 55.61015721 26 58 C26 58.66 26 59.32 26 60 C26.58007812 60.17015625 27.16015625 60.3403125 27.7578125 60.515625 C35.23158806 62.83422204 40.20365419 65.66197161 45 72 C45.66 72.33 46.32 72.66 47 73 C51.29634097 79.20931031 51.40060698 86.29330206 51.4375 93.5625 C51.4473291 94.4484082 51.4571582 95.33431641 51.46728516 96.24707031 C51.38773075 102.46153733 50.97380275 109.84880069 46.49389648 114.59594727 C45.75441772 115.29095337 45.75441772 115.29095337 45 116 C43.96986723 117.64821244 42.96885372 119.31503702 42 121 C38.61931918 126.07102124 32.91228156 128.22654853 27.1171875 129.765625 C24.74918553 130.23787611 22.39018913 130.65927091 20 131 C20 131.66 20 132.32 20 133 C1.74261301 136.84366042 -18.69715343 136.48625649 -37 133 C-37 132.34 -37 131.68 -37 131 C-37.68707031 130.93941406 -38.37414063 130.87882813 -39.08203125 130.81640625 C-39.98308594 130.73261719 -40.88414063 130.64882812 -41.8125 130.5625 C-43.15248047 130.44068359 -43.15248047 130.44068359 -44.51953125 130.31640625 C-47 130 -47 130 -50 129 C-50 126.03 -50 123.06 -50 120 C-49.34 120 -48.68 120 -48 120 C-48.04125 118.783125 -48.0825 117.56625 -48.125 116.3125 C-48.14486212 110.09565766 -47.03057915 104.11906372 -46 98 C-41.71 99.32 -37.42 100.64 -33 102 C-33 102.66 -33 103.32 -33 104 C-32.01 104 -31.02 104 -30 104 C-30 104.66 -30 105.32 -30 106 C-22.59569749 106.99196397 -15.20772707 107.11018578 -7.75 107.125 C-6.80366699 107.12951172 -5.85733398 107.13402344 -4.88232422 107.13867188 C0.18661407 107.12796096 5.00452699 106.8693779 10 106 C10 105.34 10 104.68 10 104 C10.66 104 11.32 104 12 104 C14.33046701 100.3586453 14.30891093 97.2475253 14 93 C12.38780799 89.84727614 12.38780799 89.84727614 9.9375 89.5 C9.298125 89.335 8.65875 89.17 8 89 C7.67 88.01 7.34 87.02 7 86 C1.25603094 82.72461303 -5.43521185 81.29491437 -11.81640625 79.79296875 C-17.2810195 78.43184422 -22.63448363 76.70484956 -28 75 C-28 74.34 -28 73.68 -28 73 C-30.65228812 71.92474806 -33.28368454 70.90543849 -36 70 C-37.5 68.44140625 -37.5 68.44140625 -39 66.5625 C-40.96428932 64.11225368 -42.32070868 62.78619422 -45 61 C-47.09705016 56.8835682 -48.42230545 53.6453599 -48 49 C-48.66 49 -49.32 49 -50 49 C-50 42.4 -50 35.8 -50 29 C-49.34 29 -48.68 29 -48 29 C-47.896875 28.113125 -47.79375 27.22625 -47.6875 26.3125 C-46.98151222 22.91092251 -46.00689954 20.80965935 -44 18 C-43.34 17.67 -42.68 17.34 -42 17 C-41.54882812 16.21753906 -41.09765625 15.43507813 -40.6328125 14.62890625 C-36.34665818 7.72799271 -28.14056228 5.44122619 -20.625 3.625 C-13.71849704 2.06142217 -7.08938394 1.50825083 0 2 C0 1.34 0 0.68 0 0 Z " fill="#ffffff" transform="translate(52,50)"/>
<path d="M0 0 C13.53 0 27.06 0 41 0 C41 0.66 41 1.32 41 2 C41.66 2 42.32 2 43 2 C44.79163601 5.32732403 46.24328219 8.59187085 47.375 12.1875 C48.85951783 16.86333425 50.88056955 21.20401128 53.01171875 25.6171875 C54 28 54 28 54 31 C54.66 31 55.32 31 56 31 C59 36.75 59 36.75 59 39 C59.66 39 60.32 39 61 39 C62.32 41.97 63.64 44.94 65 48 C66.32 44.7 67.64 41.4 69 38 C69.66 38 70.32 38 71 38 C71.18175781 37.35933594 71.36351562 36.71867187 71.55078125 36.05859375 C73.06270045 30.85604103 74.75000671 25.92855673 77 21 C77.66 21 78.32 21 79 21 C79.28875 20.13375 79.5775 19.2675 79.875 18.375 C80.91666667 15.25 81.95833333 12.125 83 9 C83.66 9 84.32 9 85 9 C85.28875 8.071875 85.5775 7.14375 85.875 6.1875 C87 3 87 3 89 0 C92.05075084 -0.266487 94.89626179 -0.34757146 97.9453125 -0.29296875 C99.27283035 -0.28660149 99.27283035 -0.28660149 100.62716675 -0.28010559 C103.46008445 -0.26328259 106.29229652 -0.22562425 109.125 -0.1875 C111.04295849 -0.17245782 112.96092811 -0.15876861 114.87890625 -0.14648438 C119.58621031 -0.11336727 124.29298544 -0.06156055 129 0 C129 0.66 129 1.32 129 2 C128.34 2 127.68 2 127 2 C126.62875 2.9590625 126.62875 2.9590625 126.25 3.9375 C122.98968699 11.92526689 119.22135635 19.47191451 115 27 C114.01 27 113.02 27 112 27 C111.62875 28.23169922 111.62875 28.23169922 111.25 29.48828125 C109.79690122 33.57058064 107.96204527 37.33094362 106 41.1875 C105.64421875 41.89841797 105.2884375 42.60933594 104.921875 43.34179688 C103.39793609 46.36408617 101.88290631 49.17564054 100 52 C99.34 52 98.68 52 98 52 C97.01 54.97 97.01 54.97 96 58 C95.34 58 94.68 58 94 58 C93.73058594 58.85980469 93.46117187 59.71960938 93.18359375 60.60546875 C92.00769821 63.97792163 90.63191435 67.10578315 89.0625 70.3125 C88.55847656 71.36050781 88.05445313 72.40851563 87.53515625 73.48828125 C86 76 86 76 83 77 C82.67 94.16 82.34 111.32 82 129 C70.45 129 58.9 129 47 129 C46.96261719 125.37644531 46.92523437 121.75289063 46.88671875 118.01953125 C46.84050054 114.50799541 46.7892678 110.99656604 46.73754883 107.48510742 C46.70430583 105.04572017 46.67627199 102.60625612 46.65356445 100.16674805 C46.62000783 96.65900968 46.56768951 93.15197475 46.51171875 89.64453125 C46.50532883 88.55477493 46.4989389 87.46501862 46.49235535 86.34223938 C46.46645484 79.13884078 46.46645484 79.13884078 43 73 C42.01 72.505 42.01 72.505 41 72 C41 71.01 41 70.02 41 69 C40.34 69 39.68 69 39 69 C36.99338316 65.21179916 34.9958376 61.41888948 33 57.625 C32.42765625 56.54476562 31.8553125 55.46453125 31.265625 54.3515625 C30.72421875 53.3203125 30.1828125 52.2890625 29.625 51.2265625 C29.12226562 50.27346191 28.61953125 49.32036133 28.1015625 48.33837891 C27 46 27 46 27 44 C26.34 44 25.68 44 25 44 C25 43.34 25 42.68 25 42 C24.34 42 23.68 42 23 42 C21.72817607 39.62552587 20.45751576 37.25044103 19.1875 34.875 C18.83107422 34.20984375 18.47464844 33.5446875 18.10742188 32.859375 C12 21.42897076 12 21.42897076 12 19 C11.34 19 10.68 19 10 19 C7.56839395 15.63316085 7 14.26649636 7 10 C6.01 9.67 5.02 9.34 4 9 C2.00603743 6.33916031 0 3.38757675 0 0 Z " fill="#ffffff" transform="translate(737,54)"/>
<path d="M0 0 C35.97 0 71.94 0 109 0 C109 8.25 109 16.5 109 25 C97.12 25 85.24 25 73 25 C73 59.32 73 93.64 73 129 C61.12 129 49.24 129 37 129 C37 94.68 37 60.36 37 25 C24.79 25 12.58 25 0 25 C0 16.75 0 8.5 0 0 Z " fill="#ffffff" transform="translate(111,54)"/>
<path d="M0 0 C11.88 0 23.76 0 36 0 C35.67 33.66 35.34 67.32 35 102 C53.81 102 72.62 102 92 102 C92 110.91 92 119.82 92 129 C61.64 129 31.28 129 0 129 C0 86.43 0 43.86 0 0 Z " fill="#ffffff" transform="translate(516,54)"/>
<path d="M0 0 C17.16 0 34.32 0 52 0 C52 21.45 52 42.9 52 65 C46.05405405 60.24324324 46.05405405 60.24324324 44 57 C44 56.34 44 55.68 44 55 C43.34 55 42.68 55 42 55 C38.60219535 51.95068813 36.22302224 48.96277878 34 45 C29.71643974 37.57636657 29.71643974 37.57636657 23 33 C22.10879153 31.42324655 21.2258199 29.84132289 20.3828125 28.23828125 C17.97211727 24.33622371 14.84608138 20.99222506 11.828125 17.55078125 C10 15 10 15 10 11 C9.278125 10.79375 8.55625 10.5875 7.8125 10.375 C4.00138601 8.51178872 2.46519828 6.45127759 0 3 C0 2.01 0 1.02 0 0 Z " fill="#ffffff" transform="translate(432,53)"/>
<path d="M0 0 C1.24652344 -0.00257813 2.49304688 -0.00515625 3.77734375 -0.0078125 C7.0625 0.125 7.0625 0.125 10.0625 1.125 C10.0625 1.785 10.0625 2.445 10.0625 3.125 C11.3825 3.455 12.7025 3.785 14.0625 4.125 C14.3925 3.135 14.7225 2.145 15.0625 1.125 C18.0325 1.125 21.0025 1.125 24.0625 1.125 C24.13863173 8.99033399 24.19113448 16.85557276 24.22729492 24.72119141 C24.24067551 27.39649721 24.26283385 30.07132149 24.28881836 32.74658203 C24.32525084 36.59413751 24.34223828 40.44136586 24.35546875 44.2890625 C24.37095261 45.48302643 24.38643646 46.67699036 24.40238953 47.90713501 C24.40372364 54.50554449 24.33190812 59.71488318 19.51953125 64.734375 C11.33191058 70.41319979 2.81464043 70.91109543 -6.9375 70.125 C-10.69066713 69.35202629 -14.30712248 68.34725135 -17.9375 67.125 C-17.9375 64.815 -17.9375 62.505 -17.9375 60.125 C-15.35144397 59.16720147 -14.26449831 58.9918409 -11.6640625 60.05078125 C-5.83678268 62.34662932 0.74035894 62.98052566 6.625 60.8125 C7.429375 60.255625 8.23375 59.69875 9.0625 59.125 C10.0525 58.465 11.0425 57.805 12.0625 57.125 C12.85559904 55.30962401 12.85559904 55.30962401 13.25 53.25 C13.48783203 52.23292969 13.48783203 52.23292969 13.73046875 51.1953125 C14.16806919 48.81620648 14.16806919 48.81620648 14.0625 45.125 C13.010625 45.805625 13.010625 45.805625 11.9375 46.5 C5.85028804 49.94059807 -0.19261574 51.32656958 -7.05078125 49.58984375 C-11.28411849 48.13089702 -14.72879712 46.33370288 -17.9375 43.125 C-17.9375 42.135 -17.9375 41.145 -17.9375 40.125 C-18.5975 40.125 -19.2575 40.125 -19.9375 40.125 C-21.92498346 35.14051766 -22.24311339 30.8990032 -22.1875 25.625 C-22.19910156 24.52478516 -22.19910156 24.52478516 -22.2109375 23.40234375 C-22.19492962 18.9281416 -21.61765168 15.33871375 -19.9375 11.125 C-19.2775 11.125 -18.6175 11.125 -17.9375 11.125 C-17.89625 10.5475 -17.855 9.97 -17.8125 9.375 C-16.48296871 5.95620525 -14.04083371 4.89833355 -10.9375 3.125 C-10.2775 3.125 -9.6175 3.125 -8.9375 3.125 C-8.9375 2.465 -8.9375 1.805 -8.9375 1.125 C-5.97950997 -0.35399501 -3.2891424 -0.00678874 0 0 Z M-6.9375 11.125 C-10.9573629 16.36658594 -11.55756501 21.73745152 -11.328125 28.2109375 C-10.7759536 32.33013618 -9.61711231 35.89954074 -6.9375 39.125 C-2.82630541 41.75927385 1.32612809 41.70726957 6.0625 41.125 C8.62248481 39.94205737 8.62248481 39.94205737 10.0625 38.125 C10.0625 37.465 10.0625 36.805 10.0625 36.125 C11.0525 35.795 12.0425 35.465 13.0625 35.125 C15.90006889 29.73361911 15.15060974 23.93410201 14.0625 18.125 C13.09695557 15.86760429 13.09695557 15.86760429 12.0625 14.125 C11.4025 14.125 10.7425 14.125 10.0625 14.125 C9.98 13.50625 9.8975 12.8875 9.8125 12.25 C9.24647034 10.03178178 9.24647034 10.03178178 7.4375 8.875 C2.06435482 7.17821731 -2.62140651 7.39216239 -6.9375 11.125 Z " fill="#ffffff" transform="translate(722.9375,242.875)"/>
<path d="M0 0 C3.63 0 7.26 0 11 0 C11.66 2.97 12.32 5.94 13 9 C13.66 9 14.32 9 15 9 C15.495 11.475 15.495 11.475 16 14 C16.66 14 17.32 14 18 14 C18.1858667 14.53254395 18.3717334 15.06508789 18.56323242 15.61376953 C19.43747689 18.11769191 20.31245948 20.6213557 21.1875 23.125 C21.66135132 24.48214111 21.66135132 24.48214111 22.14477539 25.86669922 C24.43325054 32.41066082 26.77025457 38.93477938 29.15234375 45.4453125 C30 48 30 48 30 50 C30.66 50 31.32 50 32 50 C32 50.66 32 51.32 32 52 C32.66 52 33.32 52 34 52 C34.83719383 54.29032311 35.6698929 56.58210957 36.5 58.875 C36.85771484 59.85146484 36.85771484 59.85146484 37.22265625 60.84765625 C39 65.7734375 39 65.7734375 39 68 C35.04 68 31.08 68 27 68 C26.18395001 66.0848421 25.37229368 64.16781166 24.5625 62.25 C24.11003906 61.18265625 23.65757813 60.1153125 23.19140625 59.015625 C22 56 22 56 21 52 C10.77 52 0.54 52 -10 52 C-10.66 53.98 -11.32 55.96 -12 58 C-12.66 58 -13.32 58 -14 58 C-14.12375 58.9075 -14.2475 59.815 -14.375 60.75 C-15 64 -15 64 -17 68 C-20.63 68 -24.26 68 -28 68 C-28 66.68 -28 65.36 -28 64 C-27.34 64 -26.68 64 -26 64 C-25.79503906 63.22914063 -25.59007812 62.45828125 -25.37890625 61.6640625 C-25.10949219 60.66117187 -24.84007812 59.65828125 -24.5625 58.625 C-24.29566406 57.62726563 -24.02882813 56.62953125 -23.75390625 55.6015625 C-23 53 -23 53 -22 51 C-21.34 51 -20.68 51 -20 51 C-19.7525 49.72125 -19.505 48.4425 -19.25 47.125 C-18.08835439 41.830253 -16.13659734 36.96810741 -14 32 C-13.34 32 -12.68 32 -12 32 C-11.90847656 31.20335937 -11.81695313 30.40671875 -11.72265625 29.5859375 C-10.80366698 25.02576372 -9.17100189 20.92957697 -7.4375 16.625 C-7.10814453 15.79355469 -6.77878906 14.96210938 -6.43945312 14.10546875 C-5.63155238 12.06815382 -4.8182989 10.03315558 -4 8 C-3.34 8 -2.68 8 -2 8 C-1.34 5.36 -0.68 2.72 0 0 Z M5 12 C4.34 14.97 3.68 17.94 3 21 C2.34 21 1.68 21 1 21 C0.49384702 22.26839526 -0.00469099 23.53983102 -0.5 24.8125 C-0.7784375 25.52019531 -1.056875 26.22789062 -1.34375 26.95703125 C-2.1529162 29.11841216 -2.1529162 29.11841216 -2 32 C-2.66 32 -3.32 32 -4 32 C-4.99 35.3 -5.98 38.6 -7 42 C1.25 42 9.5 42 18 42 C17.34 41.67 16.68 41.34 16 41 C15.375 37.9375 15.375 37.9375 15 35 C14.34 35 13.68 35 13 35 C12.6596875 33.4840625 12.6596875 33.4840625 12.3125 31.9375 C10.63540408 25.16790845 8.25004214 18.59554336 6 12 C5.67 12 5.34 12 5 12 Z " fill="#ffffff" transform="translate(30,225)"/>
<path d="M0 0 C3.63 0 7.26 0 11 0 C11.33 8.91 11.66 17.82 12 27 C13.32 26.34 14.64 25.68 16 25 C16 24.34 16 23.68 16 23 C18.97239791 21.51380105 21.69619578 21.86822991 25 21.875 C26.8871875 21.87113281 26.8871875 21.87113281 28.8125 21.8671875 C32 22 32 22 34 23 C34 23.66 34 24.32 34 25 C34.86625 25.0928125 34.86625 25.0928125 35.75 25.1875 C38.99971192 26.36100708 40.1677632 28.12077075 42 31 C42.25 33.8125 42.25 33.8125 42 36 C42.66 36 43.32 36 44 36 C44 47.88 44 59.76 44 72 C40.37 72 36.74 72 33 72 C32.98541748 70.96593018 32.97083496 69.93186035 32.95581055 68.86645508 C32.89769118 65.01763918 32.82045977 61.16940001 32.73754883 57.32104492 C32.70436345 55.65772892 32.67631166 53.99430204 32.65356445 52.33081055 C32.61990001 49.93490501 32.5675806 47.54000965 32.51171875 45.14453125 C32.50532883 44.4047554 32.4989389 43.66497955 32.49235535 42.90278625 C32.36670029 38.45691138 31.7451024 35.53855268 29 32 C25.44870378 30.22435189 21.49219953 30.54405014 17.75 31.6875 C13.86729663 34.59952753 12.73164965 38.38852611 12 43 C11.85536047 45.27519178 11.75386208 47.55332974 11.68359375 49.83203125 C11.64169922 51.12431641 11.59980469 52.41660156 11.55664062 53.74804688 C11.51683648 55.10286192 11.47712409 56.45767967 11.4375 57.8125 C11.39426277 59.18686105 11.35064688 60.56121024 11.30664062 61.93554688 C11.2007021 65.29026669 11.09862811 68.6450586 11 72 C7.37 72 3.74 72 0 72 C0 48.24 0 24.48 0 0 Z " fill="#ffffff" transform="translate(449,221)"/>
<path d="M0 0 C0.67224609 -0.00386719 1.34449219 -0.00773438 2.03710938 -0.01171875 C5.11249752 -0.00561073 7.49776313 0.14508771 10.4375 1.125 C10.4375 1.785 10.4375 2.445 10.4375 3.125 C11.200625 3.393125 11.96375 3.66125 12.75 3.9375 C15.32738618 5.07634505 16.70704864 5.93916671 18.4375 8.125 C18.4375 8.785 18.4375 9.445 18.4375 10.125 C19.4275 10.125 20.4175 10.125 21.4375 10.125 C25.15682451 17.87359273 25.8847281 26.41926164 23.7578125 34.8046875 C22.9375 37 22.9375 37 21.4375 40.125 C20.4475 40.125 19.4575 40.125 18.4375 40.125 C18.3446875 40.99125 18.3446875 40.99125 18.25 41.875 C16.91408612 45.57445383 13.91844506 47.25047641 10.625 49.1953125 C4.2960547 51.88511425 -3.87616168 51.75037201 -10.45703125 49.98828125 C-14.97529542 48.13570912 -19.21917199 45.33097634 -21.78515625 41.1171875 C-22.5625 39.125 -22.5625 39.125 -22.5625 36.125 C-23.2225 36.125 -23.8825 36.125 -24.5625 36.125 C-25.6978654 33.85426921 -25.69142412 32.58216721 -25.6953125 30.0625 C-25.69660156 29.26585937 -25.69789063 28.46921875 -25.69921875 27.6484375 C-25.69535156 26.81570313 -25.69148437 25.98296875 -25.6875 25.125 C-25.69330078 23.87589844 -25.69330078 23.87589844 -25.69921875 22.6015625 C-25.69792969 21.80492187 -25.69664062 21.00828125 -25.6953125 20.1875 C-25.69418457 19.45660156 -25.69305664 18.72570312 -25.69189453 17.97265625 C-25.5625 16.125 -25.5625 16.125 -24.5625 14.125 C-23.9025 14.125 -23.2425 14.125 -22.5625 14.125 C-22.52125 13.403125 -22.48 12.68125 -22.4375 11.9375 C-21.19256205 7.93591374 -18.93089283 6.50268906 -15.5625 4.125 C-13.1875 3.3125 -13.1875 3.3125 -11.5625 3.125 C-11.5625 2.465 -11.5625 1.805 -11.5625 1.125 C-7.72413211 -0.11191651 -4.00652655 -0.0078329 0 0 Z M-10.5625 11.125 C-14.69072462 16.24040877 -15.18417703 21.81034991 -14.94921875 28.2109375 C-14.39260096 32.40524933 -13.26338635 35.82871059 -10.5625 39.125 C-7.98490798 40.69569449 -7.98490798 40.69569449 -5.5625 41.125 C-5.5625 41.785 -5.5625 42.445 -5.5625 43.125 C-2.5925 43.125 0.3775 43.125 3.4375 43.125 C3.4375 42.465 3.4375 41.805 3.4375 41.125 C4.200625 41.063125 4.96375 41.00125 5.75 40.9375 C8.59243787 40.36225386 8.59243787 40.36225386 10.125 37.9375 C13.30953626 31.11349372 14.70020949 25.30470737 12.1875 18 C10.76711074 14.54952609 9.05621154 11.82554628 6.4375 9.125 C0.36297264 7.10015755 -5.33540343 7.32347522 -10.5625 11.125 Z " fill="#ffffff" transform="translate(669.5625,242.875)"/>
<path d="M0 0 C0.67675781 -0.00386719 1.35351562 -0.00773438 2.05078125 -0.01171875 C5.14073767 -0.00562416 7.54679311 0.1405977 10.5 1.125 C10.5 1.785 10.5 2.445 10.5 3.125 C11.5725 3.351875 12.645 3.57875 13.75 3.8125 C19.28701671 5.75045585 20.6562736 8.46768029 23.25 13.5625 C26.5082493 23.17433545 24.96453952 32.62100399 20.984375 41.69921875 C18.15413599 46.32442513 13.60141871 48.58797366 8.5 50.125 C0.08039735 51.69173393 -7.31544583 51.44975232 -14.875 47.25 C-17.24723249 45.32962132 -18.93563787 43.73227022 -20.5 41.125 C-20.5 40.465 -20.5 39.805 -20.5 39.125 C-21.16 39.125 -21.82 39.125 -22.5 39.125 C-24.86742452 34.4653073 -24.79966845 30.22429446 -24.75 25.125 C-24.75773438 24.3309375 -24.76546875 23.536875 -24.7734375 22.71875 C-24.75906255 18.40626362 -24.49604008 15.05371381 -22.5 11.125 C-21.84 11.125 -21.18 11.125 -20.5 11.125 C-20.273125 10.5475 -20.04625 9.97 -19.8125 9.375 C-18.14018419 6.5081729 -16.22780269 4.98788964 -13.5 3.125 C-12.51 3.125 -11.52 3.125 -10.5 3.125 C-10.5 2.465 -10.5 1.805 -10.5 1.125 C-6.94086771 -0.06137743 -3.701855 -0.02115346 0 0 Z M-9.5 11.125 C-10.69232613 13.17503955 -10.69232613 13.17503955 -11.5 15.125 C-12.49 15.62 -12.49 15.62 -13.5 16.125 C-14.57427471 19.34782413 -14.6332963 21.74011153 -14.625 25.125 C-14.62757813 26.176875 -14.63015625 27.22875 -14.6328125 28.3125 C-14.62353635 31.20626878 -14.62353635 31.20626878 -13.5 34.125 C-12.84 34.125 -12.18 34.125 -11.5 34.125 C-11.2525 34.90875 -11.005 35.6925 -10.75 36.5 C-9.34610901 39.44817108 -8.49324263 40.0274777 -5.5 41.125 C-5.5 41.785 -5.5 42.445 -5.5 43.125 C-2.2 43.125 1.1 43.125 4.5 43.125 C4.5 42.465 4.5 41.805 4.5 41.125 C5.263125 40.91875 6.02625 40.7125 6.8125 40.5 C10.38509382 38.6721613 11.09553428 36.82096243 12.5 33.125 C12.5 31.805 12.5 30.485 12.5 29.125 C13.16 29.125 13.82 29.125 14.5 29.125 C14.5 26.815 14.5 24.505 14.5 22.125 C13.84 22.125 13.18 22.125 12.5 22.125 C12.438125 21.09375 12.37625 20.0625 12.3125 19 C11.30509918 14.19547303 9.88220746 12.58970032 6.5 9.125 C1.36838254 6.55919127 -5.19899636 7.47566358 -9.5 11.125 Z " fill="#ffffff" transform="translate(585.5,242.875)"/>
<path d="M0 0 C1.216875 -0.00257813 2.43375 -0.00515625 3.6875 -0.0078125 C8.52843792 0.18628171 8.52843792 0.18628171 11 1.125 C11.495 2.115 11.495 2.115 12 3.125 C12.78375 3.516875 13.5675 3.90875 14.375 4.3125 C18.57570193 7.21298466 19.43814389 11.43943168 21 16.125 C21 20.085 21 24.045 21 28.125 C10.11 28.125 -0.78 28.125 -12 28.125 C-9.96848272 35.37237114 -9.96848272 35.37237114 -5 40.125 C-3.515 40.62 -3.515 40.62 -2 41.125 C-2 41.785 -2 42.445 -2 43.125 C1.3 43.125 4.6 43.125 8 43.125 C8 42.465 8 41.805 8 41.125 C11.3 40.135 14.6 39.145 18 38.125 C18 41.425 18 44.725 18 48.125 C8.75989268 52.32504878 -0.92273534 51.94260965 -10.4453125 49.09375 C-14.8006818 47.44217265 -17.78281652 45.49682394 -19.98828125 41.19921875 C-20.78563337 39.19261223 -21.4274294 37.20590956 -22 35.125 C-22.226875 34.320625 -22.45375 33.51625 -22.6875 32.6875 C-23.68360131 24.51946927 -23.94620793 14.42163195 -18.6875 7.625 C-16.12268575 5.23912628 -14.33702498 4.07843571 -11 3.125 C-11 2.465 -11 1.805 -11 1.125 C-7.3226718 -0.03335838 -3.83678577 -0.00812878 0 0 Z M-8 11.125 C-8 11.785 -8 12.445 -8 13.125 C-8.99 13.455 -9.98 13.785 -11 14.125 C-11.33 16.435 -11.66 18.745 -12 21.125 C-4.41 21.125 3.18 21.125 11 21.125 C10.67 18.815 10.34 16.505 10 14.125 C9.34 14.125 8.68 14.125 8 14.125 C7.9175 13.50625 7.835 12.8875 7.75 12.25 C7.18397034 10.03178178 7.18397034 10.03178178 5.375 8.875 C0.31535415 7.2772171 -4.17877577 7.1509268 -8 11.125 Z " fill="#ffffff" transform="translate(179,242.875)"/>
<path d="M0 0 C1.23492188 -0.00257813 2.46984375 -0.00515625 3.7421875 -0.0078125 C6.43274489 0.09782139 8.58129184 0.31970546 11.125 1.125 C11.125 1.785 11.125 2.445 11.125 3.125 C11.8675 3.33125 12.61 3.5375 13.375 3.75 C16.9346324 5.5298162 18.62924587 7.52002575 20.125 11.125 C21.49006115 16.82432312 22.125 22.26461599 22.125 28.125 C10.905 28.125 -0.315 28.125 -11.875 28.125 C-11.545 30.105 -11.215 32.085 -10.875 34.125 C-10.215 34.125 -9.555 34.125 -8.875 34.125 C-8.42125 34.90875 -7.9675 35.6925 -7.5 36.5 C-5.79848887 39.2485949 -4.82980916 40.00421032 -1.875 41.125 C-1.875 41.785 -1.875 42.445 -1.875 43.125 C1.755 43.125 5.385 43.125 9.125 43.125 C9.125 42.465 9.125 41.805 9.125 41.125 C12.095 40.135 15.065 39.145 18.125 38.125 C18.125 41.425 18.125 44.725 18.125 48.125 C10.08960771 51.80349103 -0.08406071 52.10652434 -8.62109375 49.96875 C-13.41249036 48.17509027 -17.19317512 45.67888223 -20.03515625 41.36328125 C-23.63641472 32.8375112 -23.65384329 19.32369733 -20.25 10.75 C-18.20741926 7.05009396 -15.69743993 4.99555571 -11.875 3.125 C-10.885 3.125 -9.895 3.125 -8.875 3.125 C-8.875 2.465 -8.875 1.805 -8.875 1.125 C-5.93138781 -0.3468061 -3.27451798 -0.00680773 0 0 Z M-8.875 13.125 C-8.875 13.785 -8.875 14.445 -8.875 15.125 C-9.535 15.125 -10.195 15.125 -10.875 15.125 C-11.205 17.105 -11.535 19.085 -11.875 21.125 C-4.285 21.125 3.305 21.125 11.125 21.125 C10.89674698 13.66193963 10.89674698 13.66193963 8.1875 10.6875 C4.86039325 8.16696459 2.38005065 7.73493588 -1.83203125 7.765625 C-5.27315666 8.37094725 -6.83426572 10.44653626 -8.875 13.125 Z " fill="#ffffff" transform="translate(806.875,242.875)"/>
<path d="M0 0 C1.1034375 -0.00257813 2.206875 -0.00515625 3.34375 -0.0078125 C10.42147453 0.29001254 10.42147453 0.29001254 13.1953125 2.4375 C20.14955084 10.64578132 20.5 17.01587036 20.5 28.125 C4.165 28.62 4.165 28.62 -12.5 29.125 C-11.51 32.095 -10.52 35.065 -9.5 38.125 C-8.18 38.455 -6.86 38.785 -5.5 39.125 C-4.1520257 39.76154342 -2.81403276 40.42105388 -1.5 41.125 C-1.5 41.785 -1.5 42.445 -1.5 43.125 C1.8 43.125 5.1 43.125 8.5 43.125 C8.5 42.465 8.5 41.805 8.5 41.125 C11.47 40.135 14.44 39.145 17.5 38.125 C17.5 41.425 17.5 44.725 17.5 48.125 C8.98903245 52.38048377 -1.95638716 51.92720851 -10.9609375 49.26953125 C-14.98942259 47.45361413 -17.43944604 45.01624533 -19.5 41.125 C-20.375 37.6875 -20.375 37.6875 -20.5 35.125 C-21.16 35.125 -21.82 35.125 -22.5 35.125 C-23.52345486 31.74597444 -23.6338035 28.64639987 -23.625 25.125 C-23.62886719 23.578125 -23.62886719 23.578125 -23.6328125 22 C-23.51863671 19.52842991 -23.21350656 17.4807042 -22.5 15.125 C-21.84 15.125 -21.18 15.125 -20.5 15.125 C-20.45875 14.25875 -20.4175 13.3925 -20.375 12.5 C-19.25184104 8.16781543 -17.05623615 5.78510237 -13.5 3.125 C-12.84 3.125 -12.18 3.125 -11.5 3.125 C-11.5 2.465 -11.5 1.805 -11.5 1.125 C-7.61122133 0.21084681 -3.99090618 -0.00932455 0 0 Z M-9.5 11.125 C-12.46044824 14.8749011 -12.5 16.11537122 -12.5 21.125 C-4.58 21.125 3.34 21.125 11.5 21.125 C11.17 18.815 10.84 16.505 10.5 14.125 C9.18 13.795 7.86 13.465 6.5 13.125 C6.5 12.135 6.5 11.145 6.5 10.125 C0.87122358 6.66113759 -4.11220744 7.65286701 -9.5 11.125 Z " fill="#ffffff" transform="translate(375.5,242.875)"/>
<path d="M0 0 C1.24652344 -0.00257813 2.49304688 -0.00515625 3.77734375 -0.0078125 C7.0625 0.125 7.0625 0.125 10.0625 1.125 C10.5575 2.115 10.5575 2.115 11.0625 3.125 C11.84625 3.33125 12.63 3.5375 13.4375 3.75 C16.76384052 5.49236884 17.26940192 7.39179138 18.46694946 10.84228516 C19.44116109 14.57638866 19.43285094 18.16164184 19.35546875 22 C19.35122391 22.80993408 19.34697906 23.61986816 19.34260559 24.4543457 C19.32596944 27.01158561 19.28834772 29.56800304 19.25 32.125 C19.2349336 33.87108227 19.22124864 35.61717705 19.20898438 37.36328125 C19.17611566 41.61749875 19.1244406 45.8711105 19.0625 50.125 C15.7625 50.125 12.4625 50.125 9.0625 50.125 C9.03744385 49.42004395 9.0123877 48.71508789 8.98657227 47.98876953 C8.86931958 44.74238553 8.7471885 41.49620183 8.625 38.25 C8.58568359 37.14140625 8.54636719 36.0328125 8.50585938 34.890625 C8.07068904 22.41834375 8.07068904 22.41834375 6.0625 10.125 C1.81017705 8.76425666 -2.77431671 8.34489378 -7.01855469 9.87548828 C-10.89986329 12.40278312 -11.83004889 16.81839611 -12.9375 21.125 C-13.51970022 26.16841384 -13.63213348 31.17641299 -13.6875 36.25 C-13.71572591 37.60159956 -13.74566233 38.95316452 -13.77734375 40.3046875 C-13.8474901 43.57818362 -13.90046225 46.85099019 -13.9375 50.125 C-17.5675 50.125 -21.1975 50.125 -24.9375 50.125 C-24.9375 33.955 -24.9375 17.785 -24.9375 1.125 C-21.3075 1.125 -17.6775 1.125 -13.9375 1.125 C-13.6075 2.445 -13.2775 3.765 -12.9375 5.125 C-11.6175 4.465 -10.2975 3.805 -8.9375 3.125 C-8.9375 2.465 -8.9375 1.805 -8.9375 1.125 C-5.97950997 -0.35399501 -3.2891424 -0.00678874 0 0 Z " fill="#ffffff" transform="translate(530.9375,242.875)"/>
<path d="M0 0 C17.16 0 34.32 0 52 0 C52 3.3 52 6.6 52 10 C45.07 10 38.14 10 31 10 C31 29.14 31 48.28 31 68 C27.7 68 24.4 68 21 68 C21 48.86 21 29.72 21 10 C14.07 10 7.14 10 0 10 C0 6.7 0 3.4 0 0 Z " fill="#ffffff" transform="translate(304,225)"/>
<path d="M0 0 C0.68126953 -0.00386719 1.36253906 -0.00773438 2.06445312 -0.01171875 C5.16898046 -0.0056374 7.59579065 0.13609688 10.5625 1.125 C10.5625 4.095 10.5625 7.065 10.5625 10.125 C9.58667969 10.02960938 8.61085938 9.93421875 7.60546875 9.8359375 C5.69701172 9.66964844 5.69701172 9.66964844 3.75 9.5 C2.48542969 9.38398438 1.22085937 9.26796875 -0.08203125 9.1484375 C-3.57307941 8.81058196 -3.57307941 8.81058196 -6.4375 11.125 C-6.6877157 14.20865871 -6.6877157 14.20865871 -6.4375 17.125 C-4.4575 17.785 -2.4775 18.445 -0.4375 19.125 C-0.4375 19.785 -0.4375 20.445 -0.4375 21.125 C0.46742188 21.34542969 0.46742188 21.34542969 1.390625 21.5703125 C5.45081444 22.70978502 8.06436257 23.63901227 11.125 26.625 C13.60385904 32.66048289 13.42245722 38.44957755 11.4375 44.625 C9.05457712 47.80223051 7.26433184 48.66518157 3.5625 50.125 C0.48781499 50.51533536 -2.52996243 50.50025421 -5.625 50.4375 C-6.43130859 50.44072266 -7.23761719 50.44394531 -8.06835938 50.44726562 C-14.03595133 50.39269912 -14.03595133 50.39269912 -17.4375 48.125 C-17.75 44.625 -17.75 44.625 -17.4375 41.125 C-16.7775 40.465 -16.1175 39.805 -15.4375 39.125 C-14.1175 39.785 -12.7975 40.445 -11.4375 41.125 C-11.4375 41.785 -11.4375 42.445 -11.4375 43.125 C-7.8075 43.125 -4.1775 43.125 -0.4375 43.125 C1.83640186 38.74263009 1.83640186 38.74263009 1.5625 34.125 C-0.5822024 32.36971981 -0.5822024 32.36971981 -3.4375 31.125 C-4.530625 30.568125 -5.62375 30.01125 -6.75 29.4375 C-7.636875 29.004375 -8.52375 28.57125 -9.4375 28.125 C-9.4375 27.465 -9.4375 26.805 -9.4375 26.125 C-10.035625 26.021875 -10.63375 25.91875 -11.25 25.8125 C-13.77594795 25.01863064 -14.78635407 24.16927591 -16.4375 22.125 C-18.12075534 17.07523398 -18.33857581 12.05002558 -16.0625 7.1875 C-14.4375 5.125 -14.4375 5.125 -12.4375 3.125 C-11.4475 3.125 -10.4575 3.125 -9.4375 3.125 C-9.4375 2.465 -9.4375 1.805 -9.4375 1.125 C-6.41872735 -0.38438632 -3.30670415 -0.01866437 0 0 Z " fill="#ffffff" transform="translate(261.4375,242.875)"/>
<path d="M0 0 C1.22589844 -0.00257813 2.45179688 -0.00515625 3.71484375 -0.0078125 C7.0625 0.125 7.0625 0.125 11.0625 1.125 C10.7325 4.095 10.4025 7.065 10.0625 10.125 C9.2375 9.96 8.4125 9.795 7.5625 9.625 C0.65300576 8.55755543 0.65300576 8.55755543 -5.9375 10.125 C-6.87141003 11.94156815 -6.87141003 11.94156815 -6.9375 14.125 C-5.50342275 16.76672124 -4.6163626 17.89224711 -1.75 18.875 C-1.151875 18.9575 -0.55375 19.04 0.0625 19.125 C0.0625 19.785 0.0625 20.445 0.0625 21.125 C0.949375 21.351875 1.83625 21.57875 2.75 21.8125 C6.5266247 23.30889846 8.44867976 25.04991737 11.0625 28.125 C11.0625 28.785 11.0625 29.445 11.0625 30.125 C11.7225 30.125 12.3825 30.125 13.0625 30.125 C13.0625 34.415 13.0625 38.705 13.0625 43.125 C12.4025 43.125 11.7425 43.125 11.0625 43.125 C10.835625 43.723125 10.60875 44.32125 10.375 44.9375 C8.62095865 47.86090225 7.16065771 48.67235387 4.0625 50.125 C1.21804343 50.52670221 -1.5697786 50.49941108 -4.4375 50.4375 C-5.18386719 50.44072266 -5.93023438 50.44394531 -6.69921875 50.44726562 C-10.88377888 50.40653097 -14.11791118 50.02721586 -17.9375 48.125 C-17.9375 47.465 -17.9375 46.805 -17.9375 46.125 C-17.2775 46.125 -16.6175 46.125 -15.9375 46.125 C-15.9375 43.815 -15.9375 41.505 -15.9375 39.125 C-14.2875 39.785 -12.6375 40.445 -10.9375 41.125 C-10.9375 41.785 -10.9375 42.445 -10.9375 43.125 C-7.3075 43.125 -3.6775 43.125 0.0625 43.125 C1.93120807 39.38758387 2.47952384 38.08672649 2.0625 34.125 C-0.18972832 31.87277168 -1.77244656 31.36156306 -4.75 30.3125 C-9.12412985 28.60583084 -12.04310715 26.95306796 -14.9375 23.125 C-15.75 20.3125 -15.75 20.3125 -15.9375 18.125 C-16.5975 18.125 -17.2575 18.125 -17.9375 18.125 C-17.9375 15.815 -17.9375 13.505 -17.9375 11.125 C-17.2775 11.125 -16.6175 11.125 -15.9375 11.125 C-15.834375 10.361875 -15.73125 9.59875 -15.625 8.8125 C-14.89038806 5.94083516 -14.2658935 4.89457906 -11.9375 3.125 C-11.2775 3.125 -10.6175 3.125 -9.9375 3.125 C-9.9375 2.465 -9.9375 1.805 -9.9375 1.125 C-6.45291293 -0.03652902 -3.67059492 -0.00770324 0 0 Z " fill="#ffffff" transform="translate(852.9375,242.875)"/>
<path d="M0 0 C0.68126953 -0.00386719 1.36253906 -0.00773438 2.06445312 -0.01171875 C5.16898046 -0.0056374 7.59579065 0.13609688 10.5625 1.125 C10.5625 4.095 10.5625 7.065 10.5625 10.125 C9.7375 9.96 8.9125 9.795 8.0625 9.625 C1.15300576 8.55755543 1.15300576 8.55755543 -5.4375 10.125 C-6.36216753 12.4977086 -6.36216753 12.4977086 -6.4375 15.125 C-4.91901913 17.36276128 -3.82507109 18.00319194 -1.25 18.8125 C-0.651875 18.915625 -0.05375 19.01875 0.5625 19.125 C0.5625 19.785 0.5625 20.445 0.5625 21.125 C1.449375 21.351875 2.33625 21.57875 3.25 21.8125 C7.0266247 23.30889846 8.94867976 25.04991737 11.5625 28.125 C11.5625 28.785 11.5625 29.445 11.5625 30.125 C12.2225 30.125 12.8825 30.125 13.5625 30.125 C14.63224041 41.56952444 14.63224041 41.56952444 12.07421875 45.2890625 C6.58551435 49.90275606 2.59231224 50.30707797 -4.375 50.3125 C-5.6115332 50.33086914 -5.6115332 50.33086914 -6.87304688 50.34960938 C-7.66646484 50.35154297 -8.45988281 50.35347656 -9.27734375 50.35546875 C-10.00300537 50.35957764 -10.72866699 50.36368652 -11.47631836 50.36791992 C-13.4375 50.125 -13.4375 50.125 -16.4375 48.125 C-16.1075 45.155 -15.7775 42.185 -15.4375 39.125 C-13.7875 39.785 -12.1375 40.445 -10.4375 41.125 C-10.4375 41.785 -10.4375 42.445 -10.4375 43.125 C-6.8075 43.125 -3.1775 43.125 0.5625 43.125 C2.43120807 39.38758387 2.97952384 38.08672649 2.5625 34.125 C0.27790242 31.84040242 -1.56287344 31.15370252 -4.5625 30 C-5.47257813 29.64679688 -6.38265625 29.29359375 -7.3203125 28.9296875 C-8.01898438 28.66414063 -8.71765625 28.39859375 -9.4375 28.125 C-9.4375 27.465 -9.4375 26.805 -9.4375 26.125 C-10.035625 25.898125 -10.63375 25.67125 -11.25 25.4375 C-14.20488497 23.66456902 -15.08249863 22.30925322 -16.4375 19.125 C-17.02133519 14.7777947 -16.91340734 11.24338226 -15.1875 7.1875 C-13.38593031 5.06422143 -12.02234592 4.1054588 -9.4375 3.125 C-9.4375 2.465 -9.4375 1.805 -9.4375 1.125 C-6.41872735 -0.38438632 -3.30670415 -0.01866437 0 0 Z " fill="#ffffff" transform="translate(224.4375,242.875)"/>
<path d="M0 0 C1.30710937 -0.00257813 2.61421875 -0.00515625 3.9609375 -0.0078125 C7.00515313 0.1025322 9.67705898 0.40793326 12.625 1.125 C12.295 4.095 11.965 7.065 11.625 10.125 C10.8 9.96 9.975 9.795 9.125 9.625 C3.51190889 8.82312984 -2.33937788 8.04767537 -7.375 11.125 C-12.07884593 17.1354698 -13.2338157 22.6342186 -12.375 30.125 C-11.06277697 34.71778062 -9.87629772 38.27198993 -5.625 40.6875 C-4.8825 40.831875 -4.14 40.97625 -3.375 41.125 C-3.375 41.785 -3.375 42.445 -3.375 43.125 C-0.075 43.125 3.225 43.125 6.625 43.125 C6.625 42.465 6.625 41.805 6.625 41.125 C9.1 40.63 9.1 40.63 11.625 40.125 C12.12 44.58 12.12 44.58 12.625 49.125 C4.85720994 51.71426335 -3.42866094 52.12309742 -11.140625 49.0078125 C-14.26904923 47.30231671 -16.85178925 45.64821075 -19.375 43.125 C-19.375 42.135 -19.375 41.145 -19.375 40.125 C-20.035 40.125 -20.695 40.125 -21.375 40.125 C-25.09432451 32.37640727 -25.8222281 23.83073836 -23.6953125 15.4453125 C-22.875 13.25 -22.875 13.25 -21.375 10.125 C-20.715 10.125 -20.055 10.125 -19.375 10.125 C-19.148125 9.526875 -18.92125 8.92875 -18.6875 8.3125 C-17.01890958 5.53151597 -15.2466168 4.5608084 -12.375 3.125 C-11.715 3.125 -11.055 3.125 -10.375 3.125 C-10.375 2.465 -10.375 1.805 -10.375 1.125 C-6.767112 -0.07762933 -3.80281238 -0.00747114 0 0 Z " fill="#ffffff" transform="translate(96.375,242.875)"/>
<path d="M0 0 C1.31871094 -0.00257813 2.63742188 -0.00515625 3.99609375 -0.0078125 C6.76488454 0.0952969 8.95327114 0.28417433 11.5625 1.125 C11.5625 3.435 11.5625 5.745 11.5625 8.125 C10.9025 8.125 10.2425 8.125 9.5625 8.125 C9.2325 8.785 8.9025 9.445 8.5625 10.125 C8.046875 9.96 7.53125 9.795 7 9.625 C1.63129826 8.52372785 -3.52104454 8.61214499 -8.4375 11.125 C-12.46614193 16.35134629 -13.69536927 21.54417636 -13.4375 28.125 C-12.3009068 33.89849111 -9.76884255 37.14484738 -5.4375 41.125 C-5.4375 41.785 -5.4375 42.445 -5.4375 43.125 C-1.4775 43.125 2.4825 43.125 6.5625 43.125 C6.5625 42.465 6.5625 41.805 6.5625 41.125 C9.0375 40.63 9.0375 40.63 11.5625 40.125 C11.5625 43.095 11.5625 46.065 11.5625 49.125 C3.99626685 52.11630148 -4.358928 51.6544645 -11.9375 48.8125 C-19.79183071 43.51082677 -19.79183071 43.51082677 -21.4375 38.125 C-22.0975 38.125 -22.7575 38.125 -23.4375 38.125 C-26.02581191 29.22767782 -26.02581191 22.02232218 -23.4375 13.125 C-22.7775 13.125 -22.1175 13.125 -21.4375 13.125 C-21.31181641 12.23554688 -21.31181641 12.23554688 -21.18359375 11.328125 C-20.2191209 8.48015282 -18.92352461 7.61047151 -16.5 5.875 C-15.78972656 5.35421875 -15.07945313 4.8334375 -14.34765625 4.296875 C-12.4375 3.125 -12.4375 3.125 -10.4375 3.125 C-10.4375 2.465 -10.4375 1.805 -10.4375 1.125 C-6.89615331 -0.0554489 -3.68304786 -0.02118724 0 0 Z " fill="#ffffff" transform="translate(138.4375,242.875)"/>
<path d="M0 0 C1.216875 -0.00257813 2.43375 -0.00515625 3.6875 -0.0078125 C7 0.125 7 0.125 11 1.125 C10.67 4.095 10.34 7.065 10 10.125 C9.175 9.96 8.35 9.795 7.5 9.625 C-1.06319569 8.40085484 -1.06319569 8.40085484 -9 11.125 C-13.23139992 16.64932767 -14.26489472 22.20717242 -14 29.125 C-12.96199452 33.7449752 -10.61918631 37.08955342 -7 40.125 C-6.34 40.455 -5.68 40.785 -5 41.125 C-5 41.785 -5 42.445 -5 43.125 C-1.7 43.125 1.6 43.125 5 43.125 C5 42.465 5 41.805 5 41.125 C7.97 40.63 7.97 40.63 11 40.125 C11 43.095 11 46.065 11 49.125 C0.86222056 52.50425981 -7.2064319 51.07872526 -16.875 46.875 C-22.19432995 42.49437534 -24.56775786 35.54600294 -25.22265625 28.84765625 C-25.47779891 21.82568657 -24.96148775 13.77320955 -20.3828125 8.1328125 C-17.38435323 5.44320741 -14.98216385 3.91268076 -11 3.125 C-11 2.465 -11 1.805 -11 1.125 C-7.3226718 -0.03335838 -3.83678577 -0.00812878 0 0 Z " fill="#ffffff" transform="translate(429,242.875)"/>
<path d="M0 0 C3.3 0 6.6 0 10 0 C10 23.76 10 47.52 10 72 C6.7 72 3.4 72 0 72 C0 48.24 0 24.48 0 0 Z " fill="#ffffff" transform="translate(622,221)"/>
<path d="M0 0 C2.64 0 5.28 0 8 0 C8 15.84 8 31.68 8 48 C5.36 48 2.72 48 0 48 C0 32.16 0 16.32 0 0 Z " fill="#ffffff" transform="translate(764,244)"/>
<path d="M0 0 C3.45290714 0.28774226 5.26380089 1.15761244 8 3.25 C8 3.91 8 4.57 8 5.25 C8.66 5.25 9.32 5.25 10 5.25 C11.73658429 8.72316857 11.60094854 12.46141136 11 16.25 C8.625 19.3125 8.625 19.3125 6 21.25 C5.34 21.25 4.68 21.25 4 21.25 C4 21.91 4 22.57 4 23.25 C1.36 23.25 -1.28 23.25 -4 23.25 C-4 22.59 -4 21.93 -4 21.25 C-4.763125 21.1675 -5.52625 21.085 -6.3125 21 C-9.63191485 20.07365167 -10.25026433 19.16119814 -12 16.25 C-12.86118922 11.47854619 -12.65855614 7.44515743 -10.3125 3.1875 C-6.89601672 0.32504103 -4.32124994 0.36010416 0 0 Z M-7 6.25 C-8.98362069 9.16708924 -8.9876191 10.37380904 -8.625 14 C-8.41875 15.0725 -8.2125 16.145 -8 17.25 C-6.02 17.745 -6.02 17.745 -4 18.25 C-4 14.29 -4 10.33 -4 6.25 C-4.99 6.25 -5.98 6.25 -7 6.25 Z M-1 7.25 C-1 8.24 -1 9.23 -1 10.25 C-0.01 9.92 0.98 9.59 2 9.25 C2 8.59 2 7.93 2 7.25 C1.01 7.25 0.02 7.25 -1 7.25 Z M5 7.25 C3.16308743 11.03187881 2.84162374 13.19568308 4 17.25 C5.70735301 16.21431405 5.70735301 16.21431405 7 14.25 C6.76522801 10.60458155 6.76522801 10.60458155 6 7.25 C5.67 7.25 5.34 7.25 5 7.25 Z M-1 14.25 C-1 15.57 -1 16.89 -1 18.25 C-1.99 18.745 -1.99 18.745 -3 19.25 C-1.02 19.25 0.96 19.25 3 19.25 C2.34 18.92 1.68 18.59 1 18.25 C-0.125 16.1875 -0.125 16.1875 -1 14.25 Z " fill="#ffffff" transform="translate(856,159.75)"/>
<path d="M0 0 C3.63 0 7.26 0 11 0 C11 3.63 11 7.26 11 11 C7.37 11 3.74 11 0 11 C0 7.37 0 3.74 0 0 Z " fill="#ffffff" transform="translate(762,223)"/>
</svg>