<svg version="1.1" xmlns="http://www.w3.org/2000/svg" width="462px" height="764px" transform="rotate(0) scale(1, 1)">
<path d="M0 0 C6.06040986 3.45336356 10.54083155 8.2453932 13.125 14.80859375 C13.77795091 17.58873631 13.82870311 20.2724815 13.9375 23.125 C14.19832068 28.19651326 15.1545712 31.50715857 17.625 35.9375 C22.17191994 44.21158268 22.65336297 52.85086962 20.29296875 61.9375 C19.49958485 64.31301204 18.57780011 66.62183391 17.625 68.9375 C22.87793947 74.88586408 28.20457135 80.57744557 34.0703125 85.9296875 C34.83988281 86.92355469 34.83988281 86.92355469 35.625 87.9375 C35.19674871 91.1623298 33.82077363 93.53050795 32.12109375 96.265625 C31.62802734 97.06484375 31.13496094 97.8640625 30.62695312 98.6875 C30.11068359 99.5125 29.59441406 100.3375 29.0625 101.1875 C28.54236328 102.02796875 28.02222656 102.8684375 27.48632812 103.734375 C26.20391379 105.80506237 24.91668194 107.87258572 23.625 109.9375 C24.19782715 110.11853271 24.7706543 110.29956543 25.36083984 110.48608398 C43.16247805 116.24304427 58.58317491 126.75066256 72.625 138.9375 C73.45386719 139.65550781 74.28273438 140.37351563 75.13671875 141.11328125 C91.4743613 155.55298731 106.78572901 172.25895802 116.625 191.9375 C150.285 192.2675 183.945 192.5975 218.625 192.9375 C218.625 366.8475 218.625 540.7575 218.625 719.9375 C167.805 719.9375 116.985 719.9375 64.625 719.9375 C63.965 721.5875 63.305 723.2375 62.625 724.9375 C60.84109692 727.14197517 59.06679606 729.19656126 57.125 731.25 C56.58601074 731.82322998 56.04702148 732.39645996 55.49169922 732.98706055 C37.56959308 751.73101496 14.43530987 761.42337898 -11.375 762.1875 C-33.56312057 761.56506097 -54.55758478 754.66378303 -71.375 739.9375 C-72.40173828 739.12539062 -72.40173828 739.12539062 -73.44921875 738.296875 C-79.87713876 733.09392207 -83.05390079 728.03229895 -88.375 720.9375 C-139.195 720.6075 -190.015 720.2775 -242.375 719.9375 C-242.375 546.0275 -242.375 372.1175 -242.375 192.9375 C-191.39 192.4425 -191.39 192.4425 -139.375 191.9375 C-137.065 187.9775 -134.755 184.0175 -132.375 179.9375 C-130.49819743 177.20760536 -128.63243275 174.56144253 -126.625 171.9375 C-126.11259766 171.26235352 -125.60019531 170.58720703 -125.07226562 169.89160156 C-120.19015306 163.54725725 -114.93572376 157.69513324 -109.375 151.9375 C-108.45539807 150.9547368 -107.53613063 149.9716605 -106.6171875 148.98828125 C-90.85963187 132.4030944 -71.8136671 120.84292911 -51.375 110.9375 C-50.0408734 110.27242223 -48.70734806 109.60613358 -47.375 108.9375 C-47.71345947 108.41317383 -48.05191895 107.88884766 -48.40063477 107.34863281 C-49.92600982 104.96968955 -51.43183333 102.57896083 -52.9375 100.1875 C-53.47052734 99.3625 -54.00355469 98.5375 -54.55273438 97.6875 C-55.05224609 96.88828125 -55.55175781 96.0890625 -56.06640625 95.265625 C-56.53248291 94.5324707 -56.99855957 93.79931641 -57.47875977 93.04394531 C-58.375 90.9375 -58.375 90.9375 -58.21020508 88.87182617 C-57.22943746 86.60037869 -56.1125443 85.36172341 -54.3203125 83.66015625 C-53.70542969 83.06396484 -53.09054688 82.46777344 -52.45703125 81.85351562 C-51.48830078 80.93602539 -51.48830078 80.93602539 -50.5 80 C-44.57930368 74.62185094 -44.57930368 74.62185094 -40.375 67.9375 C-41.56734122 64.37733432 -41.56734122 64.37733432 -43.375 60.9375 C-45.73131862 52.79749024 -44.49274064 44.68694587 -41.375 36.9375 C-40.86453125 36.17566406 -40.3540625 35.41382813 -39.828125 34.62890625 C-37.97306932 31.19306387 -37.74341154 27.94175927 -37.4375 24.125 C-36.51826213 15.48396883 -34.95988121 10.11403773 -28.5625 4.125 C-20.03178538 -2.73087707 -10.16606276 -4.64602868 0 0 Z M-14.47265625 18.8515625 C-17.93174317 22.64448327 -16.84605188 27.98152739 -16.77539062 32.890625 C-16.86049009 39.31813736 -16.86049009 39.31813736 -19.84765625 42.9140625 C-20.68167969 43.58179687 -21.51570313 44.24953125 -22.375 44.9375 C-24.10848019 48.40446038 -23.85199379 52.14698937 -23.375 55.9375 C-21.15061281 60.21153857 -21.15061281 60.21153857 -17.375 62.9375 C-18.71686709 73.81125052 -23.46644685 81.47885885 -31.15234375 89.1484375 C-32.55515304 90.82284868 -32.55515304 90.82284868 -32.31640625 92.7265625 C-31.36195828 95.15964999 -31.36195828 95.15964999 -29.359375 97.94140625 C-26.41739007 102.92229845 -26.7020749 108.23101535 -26.625 113.875 C-26.59535156 114.94041016 -26.56570312 116.00582031 -26.53515625 117.10351562 C-26.46489431 119.71491787 -26.41198252 122.32545004 -26.375 124.9375 C-27.2244519 125.10838135 -27.2244519 125.10838135 -28.09106445 125.28271484 C-53.28735556 130.57859952 -74.19385709 146.40754416 -92.375 163.9375 C-93.21289062 164.71222656 -94.05078125 165.48695313 -94.9140625 166.28515625 C-117.8040134 188.04877623 -135.08782075 220.34132929 -138.375 251.9375 C-138.375 253.5875 -138.375 255.2375 -138.375 256.9375 C-129.465 256.9375 -120.555 256.9375 -111.375 256.9375 C-111.07207031 254.9575 -110.76914063 252.9775 -110.45703125 250.9375 C-106.10927579 223.24094726 -106.10927579 223.24094726 -101.375 210.9375 C-100.92382812 209.73609375 -100.47265625 208.5346875 -100.0078125 207.296875 C-91.3032633 185.5590278 -74.50533152 166.86253335 -54.375 154.9375 C-52.09375 154.25390625 -52.09375 154.25390625 -50.375 153.9375 C-50.931875 154.60394531 -51.48875 155.27039063 -52.0625 155.95703125 C-77.7833774 187.0219423 -85.375 216.47469823 -85.375 256.9375 C-19.045 256.9375 47.285 256.9375 115.625 256.9375 C111.62501332 224.93760653 100.28159785 197.90232459 78.625 173.9375 C77.41524969 172.52204316 76.20672303 171.10553858 75 169.6875 C57.34812643 149.79280014 32.80837512 131.53762109 6.625 124.9375 C5.635 124.9375 4.645 124.9375 3.625 124.9375 C3.64801533 121.26948782 3.72561455 117.60451136 3.8125 113.9375 C3.82120117 112.39255859 3.82120117 112.39255859 3.83007812 110.81640625 C4.00870758 104.58422294 4.72554418 100.59128112 8.6574707 95.65625 C9.83931924 93.95503576 9.83931924 93.95503576 9.36279297 91.82836914 C8.44542076 89.47726134 7.20031935 88.17673368 5.4375 86.375 C0.35422224 80.74671102 -4.04020882 74.10282081 -5.5625 66.5625 C-5.375 62.9375 -5.375 62.9375 -3 60.0625 C-2.13375 59.36125 -1.2675 58.66 -0.375 57.9375 C1.35848019 54.47053962 1.10199379 50.72801063 0.625 46.9375 C-1.59938719 42.66346143 -1.59938719 42.66346143 -5.375 39.9375 C-5.3843457 39.37764404 -5.39369141 38.81778809 -5.40332031 38.2409668 C-5.45704507 35.70141854 -5.54068187 33.16370889 -5.625 30.625 C-5.63917969 29.74392578 -5.65335938 28.86285156 -5.66796875 27.95507812 C-5.72254415 22.92475976 -5.72254415 22.92475976 -8.296875 18.83203125 C-10.94156403 17.69362188 -11.83173328 17.70076925 -14.47265625 18.8515625 Z M-192.375 278.9375 C-178.21669425 293.09580575 -167.93272473 300.74100539 -147.28112447 300.91595113 C-144.47577902 300.91449422 -141.67176982 300.87068652 -138.86684239 300.82507479 C-135.07865689 300.78023323 -131.29122037 300.82325758 -127.5030365 300.85438538 C-120.11171022 300.90147085 -112.72284986 300.86915589 -105.33170892 300.80807067 C-96.70728509 300.73948284 -88.08342826 300.74820143 -79.4588009 300.75873732 C-64.06521185 300.77463294 -48.67278539 300.71664991 -33.27954102 300.6184082 C-18.37195492 300.52329237 -3.46572919 300.48800645 11.44213867 300.51586914 C27.72063214 300.54620399 43.99853002 300.54519887 60.27697426 300.48843998 C62.01450954 300.48240413 63.75204484 300.4763742 65.48958015 300.47035027 C66.34425355 300.46733257 67.19892694 300.46431488 68.07949952 300.46120574 C74.07996418 300.44187222 80.08020588 300.44375316 86.08068657 300.4532795 C93.39587116 300.46392374 100.70986961 300.43751251 108.0247209 300.36521173 C111.75146135 300.32916159 115.47648074 300.30845294 119.20336533 300.33142853 C139.00722052 300.94306102 139.00722052 300.94306102 155.44854832 291.36091518 C156.16677737 290.56118817 156.88500643 289.76146116 157.625 288.9375 C158.89550168 287.93147303 160.18981603 286.95369261 161.51953125 286.02734375 C162.48246094 285.31707031 163.44539063 284.60679687 164.4375 283.875 C165.43394531 283.14152344 166.43039062 282.40804688 167.45703125 281.65234375 C168.17246094 281.08644531 168.88789063 280.52054687 169.625 279.9375 C169.625 279.6075 169.625 279.2775 169.625 278.9375 C50.165 278.9375 -69.295 278.9375 -192.375 278.9375 Z M-161.375 318.9375 C-154.98847747 332.51511459 -154.98847747 332.51511459 -147.89086914 345.7202301 C-142.9239433 355.6617465 -143.14725262 365.4855252 -143.12109375 376.41381836 C-143.0872212 378.63492221 -143.05013701 380.85597901 -143.01011658 383.07698059 C-142.91338934 389.064592 -142.86718144 395.05152996 -142.83501434 401.03979945 C-142.8124216 404.79035803 -142.77857209 408.5406441 -142.74078369 412.29107857 C-142.61560178 424.72731515 -142.52303185 437.16326234 -142.4734149 449.60000806 C-142.46941388 450.60129143 -142.46941388 450.60129143 -142.46533203 451.62280273 C-142.46266846 452.2911556 -142.46000489 452.95950847 -142.45726061 453.64811445 C-142.41203451 464.48122555 -142.28690089 475.31175504 -142.12566578 486.14370363 C-141.96036545 497.31198012 -141.85731163 508.47971544 -141.81325436 519.64920717 C-141.78756343 525.90215376 -141.73740051 532.15243863 -141.62399292 538.40446281 C-141.5194542 544.28685516 -141.49342007 550.16465 -141.5253315 556.0478344 C-141.5240939 558.19367101 -141.49594051 560.33970613 -141.4374218 562.48474503 C-141.16267513 573.13937604 -141.56183451 580.94104129 -148.88654518 589.15433174 C-151.60413816 591.90873476 -154.4283311 594.50486732 -157.33499527 597.05773365 C-161.99892335 601.3553193 -166.06998865 606.32577717 -169.8125 611.4375 C-170.30621094 612.1078125 -170.79992187 612.778125 -171.30859375 613.46875 C-171.66050781 613.9534375 -172.01242188 614.438125 -172.375 614.9375 C-160.83096197 615.19312781 -149.28760424 615.3881991 -137.74130535 615.50743389 C-132.37884271 615.56468237 -127.01832545 615.64223701 -121.65698242 615.76733398 C-116.47613946 615.88745346 -111.29715894 615.95274741 -106.11503029 615.98114967 C-104.14494327 616.00137044 -102.17495066 616.04086062 -100.20566368 616.10053062 C-87.75065267 616.74541769 -87.75065267 616.74541769 -77.20634174 611.06507587 C-75.10754476 608.80665783 -73.24376321 606.38723099 -71.375 603.9375 C-52.07332952 586.70873483 -27.27975404 581.80105738 -2.28808594 582.74658203 C15.07038079 583.88422207 33.52277012 591.48210075 46.625 602.9375 C47.88056762 604.47467705 49.13590769 606.01226211 50.36635208 607.56962204 C54.03552952 611.96478055 57.42217733 615.05492248 63.20568848 615.99133301 C68.70786917 616.47438933 74.19027842 616.29003102 79.703125 616.109375 C81.72616509 616.08695383 83.74927097 616.06989103 85.7723999 616.05792236 C91.0611817 616.01241017 96.34591885 615.89482338 101.63311768 615.76147461 C107.04261568 615.63803845 112.45277663 615.58376867 117.86328125 615.5234375 C128.45228436 615.39528558 139.03830407 615.19087287 149.625 614.9375 C148.00682825 611.52920063 146.14734036 609.14219242 143.5625 606.375 C139.49026391 601.93613173 135.64224205 597.36567799 131.86328125 592.67578125 C129.82465236 590.07858758 129.82465236 590.07858758 128.12306917 588.4678368 C123.44729969 583.70227876 122.74545926 580.12066342 122.79580688 573.57936096 C122.77939128 572.65674105 122.76297568 571.73412114 122.74606264 570.78354305 C122.698832 567.70110302 122.69427047 564.62013017 122.68994141 561.53735352 C122.66542812 559.3222335 122.63852166 557.10713888 122.60940552 554.89207458 C122.53929857 548.87397611 122.50877807 542.85631666 122.48973131 536.8378613 C122.47655537 533.06436317 122.45585446 529.29097981 122.43272018 525.51753044 C122.36955536 515.03030812 122.31580106 504.54315494 122.30321693 494.05574131 C122.30240266 493.38498656 122.30158839 492.71423181 122.30074944 492.02315116 C122.29913421 490.66377096 122.29752277 489.30439076 122.29591508 487.94501055 C122.29510393 487.27036654 122.29429277 486.59572253 122.29345703 485.90063477 C122.29265307 485.22514581 122.29184912 484.54965686 122.2910208 483.85369854 C122.27612555 472.97228865 122.18758711 462.09288512 122.06574221 451.21219707 C121.94109085 439.98855149 121.87986201 428.76562901 121.87556207 417.54121917 C121.87191452 411.26036553 121.84375731 404.98217631 121.74992752 398.70196724 C121.35024121 370.31607948 122.12815107 347.41696283 138.18439293 323.25794888 C139.80081656 321.10951612 139.80081656 321.10951612 139.625 318.9375 C40.295 318.9375 -59.035 318.9375 -161.375 318.9375 Z M-66.0625 625.625 C-79.84034154 642.28426514 -84.06847192 661.75235239 -82.375 682.9375 C-79.54617765 700.55351246 -69.26619045 717.06294199 -54.91015625 727.578125 C-37.77639895 739.35580332 -18.8708423 744.0203761 1.76171875 740.78515625 C20.99193239 736.56578683 37.52595361 726.05263287 48.5 709.4375 C49.5720137 707.62174474 50.61492342 705.78842567 51.625 703.9375 C52.33269531 702.64585937 52.33269531 702.64585937 53.0546875 701.328125 C61.02184543 685.39380914 61.43759693 667.82990849 56.625 650.9375 C50.15070151 631.72804296 37.76479088 617.91039707 19.91015625 608.5078125 C-9.71695313 594.14057725 -43.68195494 602.03469575 -66.0625 625.625 Z M-197.94750977 648.96313477 C-198.35719498 649.6528688 -198.76688019 650.34260284 -199.1889801 651.05323792 C-200.375 652.9375 -200.375 652.9375 -203.375 655.9375 C-169.715 655.9375 -136.055 655.9375 -101.375 655.9375 C-97.27449507 646.11608737 -97.27449507 646.11608737 -95.375 635.9375 C-106.5538647 635.5411456 -117.73102309 635.24034873 -128.91551876 635.05669308 C-134.11118527 634.96847508 -139.30199988 634.84917174 -144.49487305 634.6550293 C-174.84294957 632.23270381 -174.84294957 632.23270381 -197.94750977 648.96313477 Z M71.625 635.9375 C71.97433594 637.03449219 72.32367188 638.13148438 72.68359375 639.26171875 C73.14336664 640.71610238 73.60299441 642.17053189 74.0625 643.625 C74.29259766 644.34623047 74.52269531 645.06746094 74.75976562 645.81054688 C74.98212891 646.51630859 75.20449219 647.22207031 75.43359375 647.94921875 C75.63782959 648.59334717 75.84206543 649.23747559 76.05249023 649.90112305 C76.70294469 652.21474379 77.15367078 654.58085392 77.625 656.9375 C111.615 656.9375 145.605 656.9375 180.625 656.9375 C176.93120137 652.62806827 173.45794258 648.67071067 169.4375 644.75 C164.75054426 640.17823826 164.75054426 640.17823826 163.52079773 637.82012939 C161.01351108 635.33025852 158.96905671 635.46458167 155.54022217 635.43981934 C154.70944153 635.45420044 153.87866089 635.46858154 153.02270508 635.48339844 C152.14444565 635.48281433 151.26618622 635.48223022 150.36131287 635.48162842 C147.45531838 635.48441749 144.55034676 635.51554821 141.64453125 635.546875 C139.63100241 635.55433446 137.61746631 635.56002878 135.60392761 635.56402588 C130.30188994 635.57930537 125.00028993 635.61860729 119.69842529 635.6628418 C114.2892448 635.7037445 108.87999366 635.72202621 103.47070312 635.7421875 C92.85527636 635.78509917 82.24017456 635.85337862 71.625 635.9375 Z " fill="#ffffff" transform="translate(242.375,2.0625)"/>
<path d="M0 0 C12.00628954 10.15531991 19.49340374 23.35996034 22.125 38.87890625 C22.21281131 41.09003554 22.24700106 43.30356216 22.24525452 45.51643372 C22.24610894 46.16999067 22.24696337 46.82354761 22.24784368 47.49690932 C22.24948592 49.6787132 22.24399776 51.86043957 22.23852539 54.04223633 C22.23824322 55.60945636 22.23840183 57.17667653 22.2389679 58.74389648 C22.23925471 62.99347647 22.23337666 67.24302821 22.22639394 71.49260163 C22.22014116 75.93555193 22.21955508 80.37850289 22.21836853 84.82145691 C22.2152609 93.23258887 22.20705515 101.64370783 22.19701904 110.05483407 C22.18374989 121.42237109 22.17835341 132.78991167 22.17251682 144.15745449 C22.16311489 162.06461482 22.14319217 179.9717477 22.125 197.87890625 C-14.175 197.87890625 -50.475 197.87890625 -87.875 197.87890625 C-87.9959091 158.48940747 -87.9959091 158.48940747 -88.02148438 141.9453125 C-88.03926444 130.53560324 -88.06013257 119.12596059 -88.10131836 107.71630859 C-88.13130336 99.40560788 -88.15059455 91.09496137 -88.15726548 82.78420806 C-88.16116238 78.3873433 -88.17026399 73.99063354 -88.19219017 69.59381866 C-88.21269941 65.44716458 -88.21880493 61.30072793 -88.21432304 57.15402794 C-88.21514184 55.64002739 -88.22102095 54.12601882 -88.23261642 52.61206245 C-88.37720824 32.74264046 -82.78299427 17.40970357 -69.0078125 2.9140625 C-49.92445558 -15.17949375 -20.64698764 -15.23276398 0 0 Z M-54.00390625 19.4296875 C-65.0049743 34.07751844 -68.04605116 48.07782565 -67.98852539 66.16992188 C-67.98867142 67.38053284 -67.98881744 68.5911438 -67.9889679 69.83843994 C-67.98839334 73.13539896 -67.983401 76.43231475 -67.97639394 79.72926521 C-67.97011449 83.18323705 -67.96955298 86.63720986 -67.96836853 90.09118652 C-67.9652687 96.62163256 -67.95707358 103.15206173 -67.94701904 109.68250036 C-67.93581591 117.12147791 -67.93033689 124.5604563 -67.92532361 131.99944019 C-67.91488976 147.29260556 -67.89711356 162.58575306 -67.875 177.87890625 C-61.275 177.87890625 -54.675 177.87890625 -47.875 177.87890625 C-47.87135437 176.27325806 -47.86770874 174.66760986 -47.86395264 173.01330566 C-47.82690194 157.83109378 -47.7692528 142.64911508 -47.69109726 127.4670639 C-47.65144268 119.66309811 -47.61898175 111.85923118 -47.60400391 104.05517578 C-47.59091639 97.24588294 -47.5637732 90.43680885 -47.52038693 83.62763929 C-47.49792995 80.0287799 -47.4820797 76.43018871 -47.48311615 72.83125305 C-47.48226604 29.2875644 -47.48226604 29.2875644 -32.35546875 13.19921875 C-30.79718481 11.82007611 -29.2029981 10.47947234 -27.5625 9.19921875 C-27.005625 8.76351563 -26.44875 8.3278125 -25.875 7.87890625 C-25.875 7.54890625 -25.875 7.21890625 -25.875 6.87890625 C-36.82178946 5.9058583 -47.0813746 11.13535141 -54.00390625 19.4296875 Z " fill="#ffffff" transform="translate(264.875,360.12109375)"/>
<path d="M0 0 C0.66 0.33 1.32 0.66 2 1 C-4.27 7.27 -10.54 13.54 -17 20 C-17 15.82063392 -15.24808305 14.71589277 -12.4375 11.6875 C-11.98584473 11.19983154 -11.53418945 10.71216309 -11.06884766 10.2097168 C-7.59122576 6.5046503 -3.95528271 3.18142305 0 0 Z " fill="#ffffff" transform="translate(174,166)"/>
<path d="M0 0 C0.66 0.33 1.32 0.66 2 1 C-2.95 5.95 -7.9 10.9 -13 16 C-13 11.93645091 -11.47015238 10.94829419 -8.75 8 C-7.96109375 7.13375 -7.1721875 6.2675 -6.359375 5.375 C-4.3351828 3.33740256 -2.34982916 1.63841299 0 0 Z " fill="#ffffff" transform="translate(202,358)"/>
</svg>